<svg width="45" height="45" viewBox="0 0 45 45" fill="none" xmlns="http://www.w3.org/2000/svg">
<g clip-path="url(#clip0_40_2663)">
<path d="M26.5798 14.009C26.5415 13.9662 25.1634 14.0259 23.9641 15.3275C22.7649 16.628 22.9494 18.1197 22.9764 18.158C23.0034 18.1962 24.6864 18.2559 25.7608 16.7427C26.8351 15.2296 26.618 14.0529 26.5798 14.009ZM30.308 27.2086C30.254 27.1006 27.6924 25.8204 27.9309 23.3589C28.1694 20.8962 29.8153 20.2212 29.8411 20.1481C29.867 20.075 29.1695 19.2594 28.4304 18.8465C27.8877 18.5554 27.2871 18.3886 26.672 18.3582C26.5505 18.3549 26.1286 18.2514 25.2613 18.4887C24.6898 18.6451 23.4016 19.1514 23.0473 19.1716C22.6918 19.1919 21.6343 18.5844 20.4969 18.4235C19.769 18.2829 18.9973 18.5709 18.4449 18.7925C17.8936 19.013 16.8451 19.6407 16.1116 21.3091C15.3781 22.9764 15.7618 25.6179 16.0363 26.4391C16.3108 27.2592 16.7394 28.6036 17.4684 29.5846C18.1164 30.6916 18.9759 31.46 19.3348 31.721C19.6936 31.982 20.7061 32.1552 21.4081 31.7964C21.9729 31.4499 22.9921 31.2507 23.3949 31.2654C23.7965 31.28 24.5885 31.4386 25.3996 31.8717C26.042 32.0934 26.6495 32.0011 27.2581 31.7536C27.8668 31.505 28.7476 30.5622 29.7759 28.6509C30.1663 27.7621 30.344 27.2817 30.308 27.2086Z" fill="black"/>
<path d="M26.5798 14.009C26.5415 13.9662 25.1634 14.0259 23.9641 15.3275C22.7649 16.628 22.9494 18.1197 22.9764 18.158C23.0034 18.1962 24.6864 18.2559 25.7608 16.7427C26.8351 15.2296 26.618 14.0529 26.5798 14.009ZM30.308 27.2086C30.254 27.1006 27.6924 25.8204 27.9309 23.3589C28.1694 20.8962 29.8153 20.2212 29.8411 20.1481C29.867 20.075 29.1695 19.2594 28.4304 18.8465C27.8877 18.5554 27.2871 18.3886 26.672 18.3582C26.5505 18.3549 26.1286 18.2514 25.2613 18.4887C24.6898 18.6451 23.4016 19.1514 23.0473 19.1716C22.6918 19.1919 21.6343 18.5844 20.4969 18.4235C19.769 18.2829 18.9973 18.5709 18.4449 18.7925C17.8936 19.013 16.8451 19.6407 16.1116 21.3091C15.3781 22.9764 15.7618 25.6179 16.0363 26.4391C16.3108 27.2592 16.7394 28.6036 17.4684 29.5846C18.1164 30.6916 18.9759 31.46 19.3348 31.721C19.6936 31.982 20.7061 32.1552 21.4081 31.7964C21.9729 31.4499 22.9921 31.2507 23.3949 31.2654C23.7965 31.28 24.5885 31.4386 25.3996 31.8717C26.042 32.0934 26.6495 32.0011 27.2581 31.7536C27.8668 31.505 28.7476 30.5622 29.7759 28.6509C30.1663 27.7621 30.344 27.2817 30.308 27.2086Z" fill="black"/>
</g>
<rect x="0.5" y="0.5" width="44" height="44" rx="7.5" stroke="black"/>
<defs>
<clipPath id="clip0_40_2663">
<rect width="18" height="18" fill="white" transform="translate(14 14)"/>
</clipPath>
</defs>
</svg>
