<svg width="289" height="24" viewBox="0 0 289 24" fill="none" xmlns="http://www.w3.org/2000/svg">
<path d="M30.7881 9H29.2695L29.2793 8.02832H30.7881C31.2275 8.02832 31.5954 7.93229 31.8916 7.74023C32.1911 7.54818 32.4157 7.27311 32.5654 6.91504C32.7184 6.55697 32.7949 6.13053 32.7949 5.63574V5.25C32.7949 4.86589 32.751 4.52572 32.6631 4.22949C32.5785 3.93327 32.4515 3.68424 32.2822 3.48242C32.1162 3.2806 31.9111 3.1276 31.667 3.02344C31.4261 2.91927 31.1478 2.86719 30.832 2.86719H29.2402V1.89062H30.832C31.304 1.89062 31.7354 1.97038 32.126 2.12988C32.5166 2.28613 32.8535 2.51237 33.1367 2.80859C33.4232 3.10482 33.6429 3.45964 33.7959 3.87305C33.9489 4.28646 34.0254 4.7487 34.0254 5.25977V5.63574C34.0254 6.14681 33.9489 6.60905 33.7959 7.02246C33.6429 7.43587 33.4232 7.79069 33.1367 8.08691C32.8503 8.37988 32.5085 8.60612 32.1113 8.76562C31.7174 8.92188 31.2764 9 30.7881 9ZM29.9482 1.89062V9H28.7227V1.89062H29.9482ZM37.8172 7.94043V5.4209C37.8172 5.2321 37.783 5.06934 37.7146 4.93262C37.6463 4.7959 37.5421 4.6901 37.4021 4.61523C37.2654 4.54036 37.0929 4.50293 36.8846 4.50293C36.6925 4.50293 36.5265 4.53548 36.3865 4.60059C36.2465 4.66569 36.1375 4.75358 36.0594 4.86426C35.9812 4.97493 35.9422 5.10026 35.9422 5.24023H34.7703C34.7703 5.0319 34.8208 4.83008 34.9217 4.63477C35.0226 4.43945 35.1691 4.2653 35.3611 4.1123C35.5532 3.95931 35.7827 3.83887 36.0496 3.75098C36.3165 3.66309 36.616 3.61914 36.948 3.61914C37.3452 3.61914 37.6967 3.68587 38.0027 3.81934C38.312 3.9528 38.5545 4.15462 38.7303 4.4248C38.9093 4.69173 38.9988 5.02702 38.9988 5.43066V7.7793C38.9988 8.02018 39.0151 8.23665 39.0477 8.42871C39.0835 8.61751 39.1339 8.7819 39.199 8.92188V9H37.993C37.9376 8.87305 37.8937 8.71191 37.8611 8.5166C37.8318 8.31803 37.8172 8.12598 37.8172 7.94043ZM37.9881 5.78711L37.9979 6.51465H37.1531C36.935 6.51465 36.743 6.53581 36.577 6.57812C36.4109 6.61719 36.2726 6.67578 36.1619 6.75391C36.0512 6.83203 35.9682 6.92643 35.9129 7.03711C35.8576 7.14779 35.8299 7.27311 35.8299 7.41309C35.8299 7.55306 35.8624 7.68164 35.9275 7.79883C35.9926 7.91276 36.087 8.00228 36.2107 8.06738C36.3377 8.13249 36.4907 8.16504 36.6697 8.16504C36.9106 8.16504 37.1206 8.11621 37.2996 8.01855C37.4819 7.91764 37.6251 7.79557 37.7293 7.65234C37.8335 7.50586 37.8888 7.36751 37.8953 7.2373L38.2762 7.75977C38.2371 7.89323 38.1704 8.03646 38.076 8.18945C37.9816 8.34245 37.8579 8.48893 37.7049 8.62891C37.5551 8.76562 37.3745 8.87793 37.1629 8.96582C36.9546 9.05371 36.7137 9.09766 36.4402 9.09766C36.0952 9.09766 35.7876 9.0293 35.5174 8.89258C35.2472 8.7526 35.0356 8.56543 34.8826 8.33105C34.7296 8.09342 34.6531 7.82487 34.6531 7.52539C34.6531 7.24544 34.7052 6.99805 34.8094 6.7832C34.9168 6.5651 35.073 6.38281 35.2781 6.23633C35.4865 6.08984 35.7404 5.97917 36.0398 5.9043C36.3393 5.82617 36.6811 5.78711 37.0652 5.78711H37.9881ZM42.3512 3.7168V4.57617H39.3727V3.7168H42.3512ZM40.232 2.42285H41.4088V7.54004C41.4088 7.7028 41.4316 7.82812 41.4771 7.91602C41.526 8.00065 41.5927 8.05762 41.6773 8.08691C41.762 8.11621 41.8613 8.13086 41.9752 8.13086C42.0566 8.13086 42.1347 8.12598 42.2096 8.11621C42.2844 8.10645 42.3447 8.09668 42.3902 8.08691L42.3951 8.98535C42.2975 9.01465 42.1835 9.04069 42.0533 9.06348C41.9264 9.08626 41.7799 9.09766 41.6139 9.09766C41.3437 9.09766 41.1044 9.05046 40.8961 8.95605C40.6878 8.8584 40.525 8.70052 40.4078 8.48242C40.2906 8.26432 40.232 7.97461 40.232 7.61328V2.42285ZM45.9379 7.94043V5.4209C45.9379 5.2321 45.9037 5.06934 45.8354 4.93262C45.767 4.7959 45.6628 4.6901 45.5229 4.61523C45.3861 4.54036 45.2136 4.50293 45.0053 4.50293C44.8132 4.50293 44.6472 4.53548 44.5072 4.60059C44.3673 4.66569 44.2582 4.75358 44.1801 4.86426C44.102 4.97493 44.0629 5.10026 44.0629 5.24023H42.891C42.891 5.0319 42.9415 4.83008 43.0424 4.63477C43.1433 4.43945 43.2898 4.2653 43.4818 4.1123C43.6739 3.95931 43.9034 3.83887 44.1703 3.75098C44.4372 3.66309 44.7367 3.61914 45.0688 3.61914C45.4659 3.61914 45.8174 3.68587 46.1234 3.81934C46.4327 3.9528 46.6752 4.15462 46.851 4.4248C47.03 4.69173 47.1195 5.02702 47.1195 5.43066V7.7793C47.1195 8.02018 47.1358 8.23665 47.1684 8.42871C47.2042 8.61751 47.2546 8.7819 47.3197 8.92188V9H46.1137C46.0583 8.87305 46.0144 8.71191 45.9818 8.5166C45.9525 8.31803 45.9379 8.12598 45.9379 7.94043ZM46.1088 5.78711L46.1186 6.51465H45.2738C45.0557 6.51465 44.8637 6.53581 44.6977 6.57812C44.5316 6.61719 44.3933 6.67578 44.2826 6.75391C44.1719 6.83203 44.0889 6.92643 44.0336 7.03711C43.9783 7.14779 43.9506 7.27311 43.9506 7.41309C43.9506 7.55306 43.9831 7.68164 44.0482 7.79883C44.1133 7.91276 44.2077 8.00228 44.3314 8.06738C44.4584 8.13249 44.6114 8.16504 44.7904 8.16504C45.0313 8.16504 45.2413 8.11621 45.4203 8.01855C45.6026 7.91764 45.7458 7.79557 45.85 7.65234C45.9542 7.50586 46.0095 7.36751 46.016 7.2373L46.3969 7.75977C46.3578 7.89323 46.2911 8.03646 46.1967 8.18945C46.1023 8.34245 45.9786 8.48893 45.8256 8.62891C45.6758 8.76562 45.4952 8.87793 45.2836 8.96582C45.0753 9.05371 44.8344 9.09766 44.5609 9.09766C44.2159 9.09766 43.9083 9.0293 43.6381 8.89258C43.3679 8.7526 43.1563 8.56543 43.0033 8.33105C42.8503 8.09342 42.7738 7.82487 42.7738 7.52539C42.7738 7.24544 42.8259 6.99805 42.9301 6.7832C43.0375 6.5651 43.1938 6.38281 43.3988 6.23633C43.6072 6.08984 43.8611 5.97917 44.1605 5.9043C44.46 5.82617 44.8018 5.78711 45.1859 5.78711H46.1088ZM51.4268 1.5V9H50.2451V1.5H51.4268ZM54.708 3.7168L52.4082 6.26562L51.1484 7.55469L50.8408 6.55859L51.793 5.38184L53.2871 3.7168H54.708ZM53.541 9L51.8271 6.51953L52.5693 5.69434L54.9033 9H53.541ZM58.1336 7.94043V5.4209C58.1336 5.2321 58.0994 5.06934 58.0311 4.93262C57.9627 4.7959 57.8585 4.6901 57.7186 4.61523C57.5818 4.54036 57.4093 4.50293 57.201 4.50293C57.0089 4.50293 56.8429 4.53548 56.7029 4.60059C56.563 4.66569 56.4539 4.75358 56.3758 4.86426C56.2977 4.97493 56.2586 5.10026 56.2586 5.24023H55.0867C55.0867 5.0319 55.1372 4.83008 55.2381 4.63477C55.339 4.43945 55.4855 4.2653 55.6775 4.1123C55.8696 3.95931 56.0991 3.83887 56.366 3.75098C56.6329 3.66309 56.9324 3.61914 57.2645 3.61914C57.6616 3.61914 58.0132 3.68587 58.3191 3.81934C58.6284 3.9528 58.8709 4.15462 59.0467 4.4248C59.2257 4.69173 59.3152 5.02702 59.3152 5.43066V7.7793C59.3152 8.02018 59.3315 8.23665 59.3641 8.42871C59.3999 8.61751 59.4503 8.7819 59.5154 8.92188V9H58.3094C58.254 8.87305 58.2101 8.71191 58.1775 8.5166C58.1482 8.31803 58.1336 8.12598 58.1336 7.94043ZM58.3045 5.78711L58.3143 6.51465H57.4695C57.2514 6.51465 57.0594 6.53581 56.8934 6.57812C56.7273 6.61719 56.589 6.67578 56.4783 6.75391C56.3676 6.83203 56.2846 6.92643 56.2293 7.03711C56.174 7.14779 56.1463 7.27311 56.1463 7.41309C56.1463 7.55306 56.1788 7.68164 56.2439 7.79883C56.3091 7.91276 56.4035 8.00228 56.5271 8.06738C56.6541 8.13249 56.8071 8.16504 56.9861 8.16504C57.227 8.16504 57.437 8.11621 57.616 8.01855C57.7983 7.91764 57.9415 7.79557 58.0457 7.65234C58.1499 7.50586 58.2052 7.36751 58.2117 7.2373L58.5926 7.75977C58.5535 7.89323 58.4868 8.03646 58.3924 8.18945C58.298 8.34245 58.1743 8.48893 58.0213 8.62891C57.8716 8.76562 57.6909 8.87793 57.4793 8.96582C57.271 9.05371 57.0301 9.09766 56.7566 9.09766C56.4116 9.09766 56.104 9.0293 55.8338 8.89258C55.5636 8.7526 55.352 8.56543 55.199 8.33105C55.046 8.09342 54.9695 7.82487 54.9695 7.52539C54.9695 7.24544 55.0216 6.99805 55.1258 6.7832C55.2332 6.5651 55.3895 6.38281 55.5945 6.23633C55.8029 6.08984 56.0568 5.97917 56.3563 5.9043C56.6557 5.82617 56.9975 5.78711 57.3816 5.78711H58.3045ZM61.4225 4.79102V9H60.2457V3.7168H61.3541L61.4225 4.79102ZM61.232 6.16309L60.8316 6.1582C60.8316 5.79362 60.8772 5.45671 60.9684 5.14746C61.0595 4.83822 61.193 4.56966 61.3687 4.3418C61.5445 4.11068 61.7626 3.93327 62.023 3.80957C62.2867 3.68262 62.5911 3.61914 62.9361 3.61914C63.177 3.61914 63.3967 3.65495 63.5953 3.72656C63.7971 3.79492 63.9713 3.90397 64.1178 4.05371C64.2675 4.20345 64.3814 4.39551 64.4596 4.62988C64.541 4.86426 64.5816 5.14746 64.5816 5.47949V9H63.4049V5.58203C63.4049 5.32487 63.3658 5.12305 63.2877 4.97656C63.2128 4.83008 63.1038 4.72591 62.9605 4.66406C62.8206 4.59896 62.6529 4.56641 62.4576 4.56641C62.2363 4.56641 62.0475 4.60872 61.8912 4.69336C61.7382 4.77799 61.6129 4.89355 61.5152 5.04004C61.4176 5.18652 61.346 5.35579 61.3004 5.54785C61.2548 5.73991 61.232 5.94499 61.232 6.16309ZM64.5084 5.85059L63.9566 5.97266C63.9566 5.65365 64.0006 5.35254 64.0885 5.06934C64.1796 4.78288 64.3115 4.53223 64.484 4.31738C64.6598 4.09928 64.8762 3.92839 65.1334 3.80469C65.3906 3.68099 65.6852 3.61914 66.0172 3.61914C66.2874 3.61914 66.5283 3.65658 66.7398 3.73145C66.9547 3.80306 67.137 3.91699 67.2867 4.07324C67.4365 4.22949 67.5504 4.43294 67.6285 4.68359C67.7066 4.93099 67.7457 5.23047 67.7457 5.58203V9H66.5641V5.57715C66.5641 5.31022 66.525 5.10352 66.4469 4.95703C66.372 4.81055 66.2646 4.70964 66.1246 4.6543C65.9846 4.5957 65.817 4.56641 65.6217 4.56641C65.4394 4.56641 65.2783 4.60059 65.1383 4.66895C65.0016 4.73405 64.886 4.82682 64.7916 4.94727C64.6972 5.06445 64.6256 5.19954 64.5768 5.35254C64.5312 5.50553 64.5084 5.67155 64.5084 5.85059ZM71.8354 7.75488V3.7168H73.017V9H71.9037L71.8354 7.75488ZM72.0014 6.65625L72.3969 6.64648C72.3969 7.0013 72.3578 7.32845 72.2797 7.62793C72.2016 7.92415 72.0811 8.18294 71.9184 8.4043C71.7556 8.6224 71.5473 8.79329 71.2934 8.91699C71.0395 9.03743 70.7351 9.09766 70.3803 9.09766C70.1231 9.09766 69.8871 9.06022 69.6723 8.98535C69.4574 8.91048 69.2719 8.79492 69.1156 8.63867C68.9626 8.48242 68.8438 8.27897 68.7592 8.02832C68.6745 7.77767 68.6322 7.47819 68.6322 7.12988V3.7168H69.809V7.13965C69.809 7.33171 69.8318 7.49284 69.8773 7.62305C69.9229 7.75 69.9848 7.85254 70.0629 7.93066C70.141 8.00879 70.2322 8.06413 70.3363 8.09668C70.4405 8.12923 70.5512 8.14551 70.6684 8.14551C71.0036 8.14551 71.2673 8.0804 71.4594 7.9502C71.6547 7.81673 71.793 7.6377 71.8744 7.41309C71.959 7.18848 72.0014 6.9362 72.0014 6.65625ZM79.0918 7.94043V5.4209C79.0918 5.2321 79.0576 5.06934 78.9893 4.93262C78.9209 4.7959 78.8167 4.6901 78.6768 4.61523C78.54 4.54036 78.3675 4.50293 78.1592 4.50293C77.9671 4.50293 77.8011 4.53548 77.6611 4.60059C77.5212 4.66569 77.4121 4.75358 77.334 4.86426C77.2559 4.97493 77.2168 5.10026 77.2168 5.24023H76.0449C76.0449 5.0319 76.0954 4.83008 76.1963 4.63477C76.2972 4.43945 76.4437 4.2653 76.6357 4.1123C76.8278 3.95931 77.0573 3.83887 77.3242 3.75098C77.5911 3.66309 77.8906 3.61914 78.2227 3.61914C78.6198 3.61914 78.9714 3.68587 79.2773 3.81934C79.5866 3.9528 79.8291 4.15462 80.0049 4.4248C80.1839 4.69173 80.2734 5.02702 80.2734 5.43066V7.7793C80.2734 8.02018 80.2897 8.23665 80.3223 8.42871C80.3581 8.61751 80.4085 8.7819 80.4736 8.92188V9H79.2676C79.2122 8.87305 79.1683 8.71191 79.1357 8.5166C79.1064 8.31803 79.0918 8.12598 79.0918 7.94043ZM79.2627 5.78711L79.2725 6.51465H78.4277C78.2096 6.51465 78.0176 6.53581 77.8516 6.57812C77.6855 6.61719 77.5472 6.67578 77.4365 6.75391C77.3258 6.83203 77.2428 6.92643 77.1875 7.03711C77.1322 7.14779 77.1045 7.27311 77.1045 7.41309C77.1045 7.55306 77.137 7.68164 77.2021 7.79883C77.2673 7.91276 77.3617 8.00228 77.4854 8.06738C77.6123 8.13249 77.7653 8.16504 77.9443 8.16504C78.1852 8.16504 78.3952 8.11621 78.5742 8.01855C78.7565 7.91764 78.8997 7.79557 79.0039 7.65234C79.1081 7.50586 79.1634 7.36751 79.1699 7.2373L79.5508 7.75977C79.5117 7.89323 79.445 8.03646 79.3506 8.18945C79.2562 8.34245 79.1325 8.48893 78.9795 8.62891C78.8298 8.76562 78.6491 8.87793 78.4375 8.96582C78.2292 9.05371 77.9883 9.09766 77.7148 9.09766C77.3698 9.09766 77.0622 9.0293 76.792 8.89258C76.5218 8.7526 76.3102 8.56543 76.1572 8.33105C76.0042 8.09342 75.9277 7.82487 75.9277 7.52539C75.9277 7.24544 75.9798 6.99805 76.084 6.7832C76.1914 6.5651 76.3477 6.38281 76.5527 6.23633C76.7611 6.08984 77.015 5.97917 77.3145 5.9043C77.6139 5.82617 77.9557 5.78711 78.3398 5.78711H79.2627ZM82.3904 1.5V9H81.2088V1.5H82.3904ZM85.6717 3.7168L83.3719 6.26562L82.1121 7.55469L81.8045 6.55859L82.7566 5.38184L84.2508 3.7168H85.6717ZM84.5047 9L82.7908 6.51953L83.533 5.69434L85.867 9H84.5047ZM89.0973 7.94043V5.4209C89.0973 5.2321 89.0631 5.06934 88.9947 4.93262C88.9264 4.7959 88.8222 4.6901 88.6822 4.61523C88.5455 4.54036 88.373 4.50293 88.1646 4.50293C87.9726 4.50293 87.8066 4.53548 87.6666 4.60059C87.5266 4.66569 87.4176 4.75358 87.3395 4.86426C87.2613 4.97493 87.2223 5.10026 87.2223 5.24023H86.0504C86.0504 5.0319 86.1008 4.83008 86.2018 4.63477C86.3027 4.43945 86.4492 4.2653 86.6412 4.1123C86.8333 3.95931 87.0628 3.83887 87.3297 3.75098C87.5966 3.66309 87.8961 3.61914 88.2281 3.61914C88.6253 3.61914 88.9768 3.68587 89.2828 3.81934C89.5921 3.9528 89.8346 4.15462 90.0104 4.4248C90.1894 4.69173 90.2789 5.02702 90.2789 5.43066V7.7793C90.2789 8.02018 90.2952 8.23665 90.3277 8.42871C90.3635 8.61751 90.414 8.7819 90.4791 8.92188V9H89.273C89.2177 8.87305 89.1738 8.71191 89.1412 8.5166C89.1119 8.31803 89.0973 8.12598 89.0973 7.94043ZM89.2682 5.78711L89.2779 6.51465H88.4332C88.2151 6.51465 88.023 6.53581 87.857 6.57812C87.691 6.61719 87.5527 6.67578 87.442 6.75391C87.3313 6.83203 87.2483 6.92643 87.193 7.03711C87.1376 7.14779 87.11 7.27311 87.11 7.41309C87.11 7.55306 87.1425 7.68164 87.2076 7.79883C87.2727 7.91276 87.3671 8.00228 87.4908 8.06738C87.6178 8.13249 87.7708 8.16504 87.9498 8.16504C88.1907 8.16504 88.4007 8.11621 88.5797 8.01855C88.762 7.91764 88.9052 7.79557 89.0094 7.65234C89.1135 7.50586 89.1689 7.36751 89.1754 7.2373L89.5563 7.75977C89.5172 7.89323 89.4505 8.03646 89.3561 8.18945C89.2617 8.34245 89.138 8.48893 88.985 8.62891C88.8352 8.76562 88.6546 8.87793 88.443 8.96582C88.2346 9.05371 87.9938 9.09766 87.7203 9.09766C87.3753 9.09766 87.0676 9.0293 86.7975 8.89258C86.5273 8.7526 86.3157 8.56543 86.1627 8.33105C86.0097 8.09342 85.9332 7.82487 85.9332 7.52539C85.9332 7.24544 85.9853 6.99805 86.0895 6.7832C86.1969 6.5651 86.3531 6.38281 86.5582 6.23633C86.7665 6.08984 87.0204 5.97917 87.3199 5.9043C87.6194 5.82617 87.9612 5.78711 88.3453 5.78711H89.2682ZM92.3764 4.84473V9H91.1996V3.7168H92.308L92.3764 4.84473ZM92.1664 6.16309L91.7855 6.1582C91.7888 5.78385 91.8409 5.44043 91.9418 5.12793C92.046 4.81543 92.1892 4.54688 92.3715 4.32227C92.557 4.09766 92.7784 3.92513 93.0355 3.80469C93.2927 3.68099 93.5792 3.61914 93.8949 3.61914C94.1488 3.61914 94.3783 3.65495 94.5834 3.72656C94.7917 3.79492 94.9691 3.90723 95.1156 4.06348C95.2654 4.21973 95.3793 4.42318 95.4574 4.67383C95.5355 4.92122 95.5746 5.22559 95.5746 5.58691V9H94.393V5.58203C94.393 5.32812 94.3555 5.12793 94.2807 4.98145C94.209 4.83171 94.1033 4.72591 93.9633 4.66406C93.8266 4.59896 93.6557 4.56641 93.4506 4.56641C93.2488 4.56641 93.0681 4.60872 92.9086 4.69336C92.7491 4.77799 92.614 4.89355 92.5033 5.04004C92.3959 5.18652 92.3129 5.35579 92.2543 5.54785C92.1957 5.73991 92.1664 5.94499 92.1664 6.16309ZM101.889 7.90625V1.5H103.07V9H102.001L101.889 7.90625ZM98.4512 6.41699V6.31445C98.4512 5.91406 98.4984 5.54948 98.5928 5.2207C98.6872 4.88867 98.8239 4.60384 99.0029 4.36621C99.182 4.12533 99.4001 3.94141 99.6572 3.81445C99.9144 3.68424 100.204 3.61914 100.526 3.61914C100.845 3.61914 101.125 3.68099 101.366 3.80469C101.607 3.92839 101.812 4.10579 101.981 4.33691C102.151 4.56478 102.286 4.83822 102.387 5.15723C102.488 5.47298 102.559 5.82454 102.602 6.21191V6.53906C102.559 6.91667 102.488 7.26172 102.387 7.57422C102.286 7.88672 102.151 8.1569 101.981 8.38477C101.812 8.61263 101.605 8.78841 101.361 8.91211C101.12 9.03581 100.839 9.09766 100.517 9.09766C100.198 9.09766 99.9095 9.03092 99.6523 8.89746C99.3984 8.764 99.182 8.57682 99.0029 8.33594C98.8239 8.09505 98.6872 7.81185 98.5928 7.48633C98.4984 7.15755 98.4512 6.80111 98.4512 6.41699ZM99.6279 6.31445V6.41699C99.6279 6.65788 99.6491 6.88249 99.6914 7.09082C99.737 7.29915 99.807 7.48307 99.9014 7.64258C99.9958 7.79883 100.118 7.92253 100.268 8.01367C100.421 8.10156 100.603 8.14551 100.814 8.14551C101.081 8.14551 101.301 8.08691 101.474 7.96973C101.646 7.85254 101.781 7.69466 101.879 7.49609C101.98 7.29427 102.048 7.06966 102.084 6.82227V5.93848C102.064 5.74642 102.024 5.56738 101.962 5.40137C101.903 5.23535 101.824 5.09049 101.723 4.9668C101.622 4.83984 101.496 4.74219 101.347 4.67383C101.2 4.60221 101.026 4.56641 100.824 4.56641C100.609 4.56641 100.427 4.61198 100.277 4.70312C100.128 4.79427 100.004 4.9196 99.9062 5.0791C99.8118 5.23861 99.7419 5.42415 99.6963 5.63574C99.6507 5.84733 99.6279 6.07357 99.6279 6.31445ZM105.261 3.7168V9H104.079V3.7168H105.261ZM104.001 2.33008C104.001 2.15104 104.059 2.00293 104.177 1.88574C104.297 1.7653 104.463 1.70508 104.675 1.70508C104.883 1.70508 105.047 1.7653 105.168 1.88574C105.288 2.00293 105.348 2.15104 105.348 2.33008C105.348 2.50586 105.288 2.65234 105.168 2.76953C105.047 2.88672 104.883 2.94531 104.675 2.94531C104.463 2.94531 104.297 2.88672 104.177 2.76953C104.059 2.65234 104.001 2.50586 104.001 2.33008ZM107.509 1.5V9H106.328V1.5H107.509ZM109.758 3.7168V9H108.577V3.7168H109.758ZM108.498 2.33008C108.498 2.15104 108.557 2.00293 108.674 1.88574C108.795 1.7653 108.961 1.70508 109.172 1.70508C109.381 1.70508 109.545 1.7653 109.665 1.88574C109.786 2.00293 109.846 2.15104 109.846 2.33008C109.846 2.50586 109.786 2.65234 109.665 2.76953C109.545 2.88672 109.381 2.94531 109.172 2.94531C108.961 2.94531 108.795 2.88672 108.674 2.76953C108.557 2.65234 108.498 2.50586 108.498 2.33008ZM111.914 4.84473V9H110.738V3.7168H111.846L111.914 4.84473ZM111.704 6.16309L111.323 6.1582C111.327 5.78385 111.379 5.44043 111.48 5.12793C111.584 4.81543 111.727 4.54688 111.909 4.32227C112.095 4.09766 112.316 3.92513 112.573 3.80469C112.831 3.68099 113.117 3.61914 113.433 3.61914C113.687 3.61914 113.916 3.65495 114.121 3.72656C114.33 3.79492 114.507 3.90723 114.654 4.06348C114.803 4.21973 114.917 4.42318 114.995 4.67383C115.073 4.92122 115.113 5.22559 115.113 5.58691V9H113.931V5.58203C113.931 5.32812 113.893 5.12793 113.819 4.98145C113.747 4.83171 113.641 4.72591 113.501 4.66406C113.364 4.59896 113.194 4.56641 112.988 4.56641C112.787 4.56641 112.606 4.60872 112.446 4.69336C112.287 4.77799 112.152 4.89355 112.041 5.04004C111.934 5.18652 111.851 5.35579 111.792 5.54785C111.734 5.73991 111.704 5.94499 111.704 6.16309ZM119.236 7.90625V1.5H120.418V9H119.349L119.236 7.90625ZM115.799 6.41699V6.31445C115.799 5.91406 115.846 5.54948 115.94 5.2207C116.035 4.88867 116.172 4.60384 116.351 4.36621C116.53 4.12533 116.748 3.94141 117.005 3.81445C117.262 3.68424 117.552 3.61914 117.874 3.61914C118.193 3.61914 118.473 3.68099 118.714 3.80469C118.955 3.92839 119.16 4.10579 119.329 4.33691C119.498 4.56478 119.633 4.83822 119.734 5.15723C119.835 5.47298 119.907 5.82454 119.949 6.21191V6.53906C119.907 6.91667 119.835 7.26172 119.734 7.57422C119.633 7.88672 119.498 8.1569 119.329 8.38477C119.16 8.61263 118.953 8.78841 118.709 8.91211C118.468 9.03581 118.187 9.09766 117.864 9.09766C117.545 9.09766 117.257 9.03092 117 8.89746C116.746 8.764 116.53 8.57682 116.351 8.33594C116.172 8.09505 116.035 7.81185 115.94 7.48633C115.846 7.15755 115.799 6.80111 115.799 6.41699ZM116.976 6.31445V6.41699C116.976 6.65788 116.997 6.88249 117.039 7.09082C117.085 7.29915 117.155 7.48307 117.249 7.64258C117.343 7.79883 117.465 7.92253 117.615 8.01367C117.768 8.10156 117.951 8.14551 118.162 8.14551C118.429 8.14551 118.649 8.08691 118.821 7.96973C118.994 7.85254 119.129 7.69466 119.227 7.49609C119.327 7.29427 119.396 7.06966 119.432 6.82227V5.93848C119.412 5.74642 119.371 5.56738 119.31 5.40137C119.251 5.23535 119.171 5.09049 119.07 4.9668C118.969 4.83984 118.844 4.74219 118.694 4.67383C118.548 4.60221 118.374 4.56641 118.172 4.56641C117.957 4.56641 117.775 4.61198 117.625 4.70312C117.475 4.79427 117.352 4.9196 117.254 5.0791C117.16 5.23861 117.09 5.42415 117.044 5.63574C116.998 5.84733 116.976 6.07357 116.976 6.31445ZM124.527 7.75488V3.7168H125.709V9H124.596L124.527 7.75488ZM124.693 6.65625L125.089 6.64648C125.089 7.0013 125.05 7.32845 124.971 7.62793C124.893 7.92415 124.773 8.18294 124.61 8.4043C124.447 8.6224 124.239 8.79329 123.985 8.91699C123.731 9.03743 123.427 9.09766 123.072 9.09766C122.815 9.09766 122.579 9.06022 122.364 8.98535C122.149 8.91048 121.964 8.79492 121.807 8.63867C121.654 8.48242 121.536 8.27897 121.451 8.02832C121.366 7.77767 121.324 7.47819 121.324 7.12988V3.7168H122.501V7.13965C122.501 7.33171 122.524 7.49284 122.569 7.62305C122.615 7.75 122.677 7.85254 122.755 7.93066C122.833 8.00879 122.924 8.06413 123.028 8.09668C123.132 8.12923 123.243 8.14551 123.36 8.14551C123.695 8.14551 123.959 8.0804 124.151 7.9502C124.346 7.81673 124.485 7.6377 124.566 7.41309C124.651 7.18848 124.693 6.9362 124.693 6.65625ZM127.782 4.84473V9H126.605V3.7168H127.713L127.782 4.84473ZM127.572 6.16309L127.191 6.1582C127.194 5.78385 127.246 5.44043 127.347 5.12793C127.451 4.81543 127.595 4.54688 127.777 4.32227C127.963 4.09766 128.184 3.92513 128.441 3.80469C128.698 3.68099 128.985 3.61914 129.3 3.61914C129.554 3.61914 129.784 3.65495 129.989 3.72656C130.197 3.79492 130.375 3.90723 130.521 4.06348C130.671 4.21973 130.785 4.42318 130.863 4.67383C130.941 4.92122 130.98 5.22559 130.98 5.58691V9H129.798V5.58203C129.798 5.32812 129.761 5.12793 129.686 4.98145C129.615 4.83171 129.509 4.72591 129.369 4.66406C129.232 4.59896 129.061 4.56641 128.856 4.56641C128.654 4.56641 128.474 4.60872 128.314 4.69336C128.155 4.77799 128.019 4.89355 127.909 5.04004C127.801 5.18652 127.718 5.35579 127.66 5.54785C127.601 5.73991 127.572 5.94499 127.572 6.16309ZM135.265 3.7168H136.334V8.85352C136.334 9.32878 136.233 9.73242 136.032 10.0645C135.83 10.3965 135.548 10.6488 135.187 10.8213C134.826 10.9971 134.407 11.085 133.932 11.085C133.73 11.085 133.506 11.0557 133.258 10.9971C133.014 10.9385 132.776 10.8441 132.545 10.7139C132.317 10.5869 132.127 10.4193 131.974 10.2109L132.526 9.51758C132.715 9.74219 132.923 9.90658 133.151 10.0107C133.379 10.1149 133.618 10.167 133.869 10.167C134.139 10.167 134.368 10.1165 134.557 10.0156C134.749 9.91797 134.897 9.77311 135.001 9.58105C135.106 9.389 135.158 9.15462 135.158 8.87793V4.91309L135.265 3.7168ZM131.676 6.41699V6.31445C131.676 5.91406 131.725 5.54948 131.823 5.2207C131.92 4.88867 132.06 4.60384 132.243 4.36621C132.425 4.12533 132.646 3.94141 132.907 3.81445C133.167 3.68424 133.462 3.61914 133.79 3.61914C134.132 3.61914 134.424 3.68099 134.664 3.80469C134.909 3.92839 135.112 4.10579 135.275 4.33691C135.438 4.56478 135.565 4.83822 135.656 5.15723C135.75 5.47298 135.82 5.82454 135.866 6.21191V6.53906C135.823 6.91667 135.752 7.26172 135.651 7.57422C135.55 7.88672 135.416 8.1569 135.25 8.38477C135.084 8.61263 134.879 8.78841 134.635 8.91211C134.394 9.03581 134.109 9.09766 133.781 9.09766C133.458 9.09766 133.167 9.03092 132.907 8.89746C132.649 8.764 132.428 8.57682 132.243 8.33594C132.06 8.09505 131.92 7.81185 131.823 7.48633C131.725 7.15755 131.676 6.80111 131.676 6.41699ZM132.853 6.31445V6.41699C132.853 6.65788 132.876 6.88249 132.921 7.09082C132.97 7.29915 133.043 7.48307 133.141 7.64258C133.242 7.79883 133.369 7.92253 133.522 8.01367C133.678 8.10156 133.862 8.14551 134.074 8.14551C134.35 8.14551 134.577 8.08691 134.752 7.96973C134.931 7.85254 135.068 7.69466 135.162 7.49609C135.26 7.29427 135.329 7.06966 135.368 6.82227V5.93848C135.348 5.74642 135.307 5.56738 135.246 5.40137C135.187 5.23535 135.107 5.09049 135.006 4.9668C134.905 4.83984 134.778 4.74219 134.625 4.67383C134.472 4.60221 134.292 4.56641 134.083 4.56641C133.872 4.56641 133.688 4.61198 133.532 4.70312C133.375 4.79427 133.247 4.9196 133.146 5.0791C133.048 5.23861 132.975 5.42415 132.926 5.63574C132.877 5.84733 132.853 6.07357 132.853 6.31445ZM138.515 3.7168V9H137.333V3.7168H138.515ZM137.255 2.33008C137.255 2.15104 137.314 2.00293 137.431 1.88574C137.551 1.7653 137.717 1.70508 137.929 1.70508C138.137 1.70508 138.302 1.7653 138.422 1.88574C138.543 2.00293 138.603 2.15104 138.603 2.33008C138.603 2.50586 138.543 2.65234 138.422 2.76953C138.302 2.88672 138.137 2.94531 137.929 2.94531C137.717 2.94531 137.551 2.88672 137.431 2.76953C137.314 2.65234 137.255 2.50586 137.255 2.33008ZM144.917 7.90625V1.5H146.098V9H145.029L144.917 7.90625ZM141.479 6.41699V6.31445C141.479 5.91406 141.526 5.54948 141.621 5.2207C141.715 4.88867 141.852 4.60384 142.031 4.36621C142.21 4.12533 142.428 3.94141 142.685 3.81445C142.943 3.68424 143.232 3.61914 143.554 3.61914C143.873 3.61914 144.153 3.68099 144.394 3.80469C144.635 3.92839 144.84 4.10579 145.01 4.33691C145.179 4.56478 145.314 4.83822 145.415 5.15723C145.516 5.47298 145.587 5.82454 145.63 6.21191V6.53906C145.587 6.91667 145.516 7.26172 145.415 7.57422C145.314 7.88672 145.179 8.1569 145.01 8.38477C144.84 8.61263 144.634 8.78841 144.389 8.91211C144.149 9.03581 143.867 9.09766 143.545 9.09766C143.226 9.09766 142.938 9.03092 142.68 8.89746C142.427 8.764 142.21 8.57682 142.031 8.33594C141.852 8.09505 141.715 7.81185 141.621 7.48633C141.526 7.15755 141.479 6.80111 141.479 6.41699ZM142.656 6.31445V6.41699C142.656 6.65788 142.677 6.88249 142.72 7.09082C142.765 7.29915 142.835 7.48307 142.929 7.64258C143.024 7.79883 143.146 7.92253 143.296 8.01367C143.449 8.10156 143.631 8.14551 143.843 8.14551C144.11 8.14551 144.329 8.08691 144.502 7.96973C144.674 7.85254 144.809 7.69466 144.907 7.49609C145.008 7.29427 145.076 7.06966 145.112 6.82227V5.93848C145.093 5.74642 145.052 5.56738 144.99 5.40137C144.931 5.23535 144.852 5.09049 144.751 4.9668C144.65 4.83984 144.525 4.74219 144.375 4.67383C144.228 4.60221 144.054 4.56641 143.852 4.56641C143.637 4.56641 143.455 4.61198 143.305 4.70312C143.156 4.79427 143.032 4.9196 142.934 5.0791C142.84 5.23861 142.77 5.42415 142.724 5.63574C142.679 5.84733 142.656 6.07357 142.656 6.31445ZM150.007 7.94043V5.4209C150.007 5.2321 149.973 5.06934 149.905 4.93262C149.837 4.7959 149.732 4.6901 149.592 4.61523C149.456 4.54036 149.283 4.50293 149.075 4.50293C148.883 4.50293 148.717 4.53548 148.577 4.60059C148.437 4.66569 148.328 4.75358 148.25 4.86426C148.171 4.97493 148.132 5.10026 148.132 5.24023H146.961C146.961 5.0319 147.011 4.83008 147.112 4.63477C147.213 4.43945 147.359 4.2653 147.551 4.1123C147.743 3.95931 147.973 3.83887 148.24 3.75098C148.507 3.66309 148.806 3.61914 149.138 3.61914C149.535 3.61914 149.887 3.68587 150.193 3.81934C150.502 3.9528 150.745 4.15462 150.921 4.4248C151.1 4.69173 151.189 5.02702 151.189 5.43066V7.7793C151.189 8.02018 151.205 8.23665 151.238 8.42871C151.274 8.61751 151.324 8.7819 151.389 8.92188V9H150.183C150.128 8.87305 150.084 8.71191 150.051 8.5166C150.022 8.31803 150.007 8.12598 150.007 7.94043ZM150.178 5.78711L150.188 6.51465H149.343C149.125 6.51465 148.933 6.53581 148.767 6.57812C148.601 6.61719 148.463 6.67578 148.352 6.75391C148.241 6.83203 148.158 6.92643 148.103 7.03711C148.048 7.14779 148.02 7.27311 148.02 7.41309C148.02 7.55306 148.053 7.68164 148.118 7.79883C148.183 7.91276 148.277 8.00228 148.401 8.06738C148.528 8.13249 148.681 8.16504 148.86 8.16504C149.101 8.16504 149.311 8.11621 149.49 8.01855C149.672 7.91764 149.815 7.79557 149.92 7.65234C150.024 7.50586 150.079 7.36751 150.086 7.2373L150.466 7.75977C150.427 7.89323 150.361 8.03646 150.266 8.18945C150.172 8.34245 150.048 8.48893 149.895 8.62891C149.745 8.76562 149.565 8.87793 149.353 8.96582C149.145 9.05371 148.904 9.09766 148.63 9.09766C148.285 9.09766 147.978 9.0293 147.708 8.89258C147.437 8.7526 147.226 8.56543 147.073 8.33105C146.92 8.09342 146.843 7.82487 146.843 7.52539C146.843 7.24544 146.895 6.99805 147 6.7832C147.107 6.5651 147.263 6.38281 147.468 6.23633C147.677 6.08984 147.931 5.97917 148.23 5.9043C148.53 5.82617 148.871 5.78711 149.255 5.78711H150.178ZM153.287 4.84473V9H152.11V3.7168H153.218L153.287 4.84473ZM153.077 6.16309L152.696 6.1582C152.699 5.78385 152.751 5.44043 152.852 5.12793C152.956 4.81543 153.099 4.54688 153.282 4.32227C153.467 4.09766 153.689 3.92513 153.946 3.80469C154.203 3.68099 154.489 3.61914 154.805 3.61914C155.059 3.61914 155.288 3.65495 155.494 3.72656C155.702 3.79492 155.879 3.90723 156.026 4.06348C156.176 4.21973 156.289 4.42318 156.368 4.67383C156.446 4.92122 156.485 5.22559 156.485 5.58691V9H155.303V5.58203C155.303 5.32812 155.266 5.12793 155.191 4.98145C155.119 4.83171 155.013 4.72591 154.873 4.66406C154.737 4.59896 154.566 4.56641 154.361 4.56641C154.159 4.56641 153.978 4.60872 153.819 4.69336C153.659 4.77799 153.524 4.89355 153.413 5.04004C153.306 5.18652 153.223 5.35579 153.164 5.54785C153.106 5.73991 153.077 5.94499 153.077 6.16309ZM161.998 3.7168V4.57617H159.02V3.7168H161.998ZM159.879 2.42285H161.056V7.54004C161.056 7.7028 161.078 7.82812 161.124 7.91602C161.173 8.00065 161.24 8.05762 161.324 8.08691C161.409 8.11621 161.508 8.13086 161.622 8.13086C161.703 8.13086 161.782 8.12598 161.856 8.11621C161.931 8.10645 161.992 8.09668 162.037 8.08691L162.042 8.98535C161.944 9.01465 161.83 9.04069 161.7 9.06348C161.573 9.08626 161.427 9.09766 161.261 9.09766C160.991 9.09766 160.751 9.05046 160.543 8.95605C160.335 8.8584 160.172 8.70052 160.055 8.48242C159.938 8.26432 159.879 7.97461 159.879 7.61328V2.42285ZM163.866 3.7168V9H162.684V3.7168H163.866ZM162.606 2.33008C162.606 2.15104 162.665 2.00293 162.782 1.88574C162.902 1.7653 163.068 1.70508 163.28 1.70508C163.488 1.70508 163.653 1.7653 163.773 1.88574C163.894 2.00293 163.954 2.15104 163.954 2.33008C163.954 2.50586 163.894 2.65234 163.773 2.76953C163.653 2.88672 163.488 2.94531 163.28 2.94531C163.068 2.94531 162.902 2.88672 162.782 2.76953C162.665 2.65234 162.606 2.50586 162.606 2.33008ZM168.078 7.90625V1.5H169.259V9H168.19L168.078 7.90625ZM164.64 6.41699V6.31445C164.64 5.91406 164.687 5.54948 164.782 5.2207C164.876 4.88867 165.013 4.60384 165.192 4.36621C165.371 4.12533 165.589 3.94141 165.846 3.81445C166.103 3.68424 166.393 3.61914 166.715 3.61914C167.034 3.61914 167.314 3.68099 167.555 3.80469C167.796 3.92839 168.001 4.10579 168.171 4.33691C168.34 4.56478 168.475 4.83822 168.576 5.15723C168.677 5.47298 168.748 5.82454 168.791 6.21191V6.53906C168.748 6.91667 168.677 7.26172 168.576 7.57422C168.475 7.88672 168.34 8.1569 168.171 8.38477C168.001 8.61263 167.795 8.78841 167.55 8.91211C167.309 9.03581 167.028 9.09766 166.706 9.09766C166.387 9.09766 166.099 9.03092 165.841 8.89746C165.587 8.764 165.371 8.57682 165.192 8.33594C165.013 8.09505 164.876 7.81185 164.782 7.48633C164.687 7.15755 164.64 6.80111 164.64 6.41699ZM165.817 6.31445V6.41699C165.817 6.65788 165.838 6.88249 165.88 7.09082C165.926 7.29915 165.996 7.48307 166.09 7.64258C166.185 7.79883 166.307 7.92253 166.457 8.01367C166.61 8.10156 166.792 8.14551 167.004 8.14551C167.27 8.14551 167.49 8.08691 167.663 7.96973C167.835 7.85254 167.97 7.69466 168.068 7.49609C168.169 7.29427 168.237 7.06966 168.273 6.82227V5.93848C168.254 5.74642 168.213 5.56738 168.151 5.40137C168.092 5.23535 168.013 5.09049 167.912 4.9668C167.811 4.83984 167.685 4.74219 167.536 4.67383C167.389 4.60221 167.215 4.56641 167.013 4.56641C166.798 4.56641 166.616 4.61198 166.466 4.70312C166.317 4.79427 166.193 4.9196 166.095 5.0791C166.001 5.23861 165.931 5.42415 165.885 5.63574C165.84 5.84733 165.817 6.07357 165.817 6.31445ZM173.168 7.94043V5.4209C173.168 5.2321 173.134 5.06934 173.066 4.93262C172.997 4.7959 172.893 4.6901 172.753 4.61523C172.617 4.54036 172.444 4.50293 172.236 4.50293C172.044 4.50293 171.878 4.53548 171.738 4.60059C171.598 4.66569 171.489 4.75358 171.411 4.86426C171.332 4.97493 171.293 5.10026 171.293 5.24023H170.121C170.121 5.0319 170.172 4.83008 170.273 4.63477C170.374 4.43945 170.52 4.2653 170.712 4.1123C170.904 3.95931 171.134 3.83887 171.401 3.75098C171.668 3.66309 171.967 3.61914 172.299 3.61914C172.696 3.61914 173.048 3.68587 173.354 3.81934C173.663 3.9528 173.906 4.15462 174.081 4.4248C174.26 4.69173 174.35 5.02702 174.35 5.43066V7.7793C174.35 8.02018 174.366 8.23665 174.399 8.42871C174.435 8.61751 174.485 8.7819 174.55 8.92188V9H173.344C173.289 8.87305 173.245 8.71191 173.212 8.5166C173.183 8.31803 173.168 8.12598 173.168 7.94043ZM173.339 5.78711L173.349 6.51465H172.504C172.286 6.51465 172.094 6.53581 171.928 6.57812C171.762 6.61719 171.624 6.67578 171.513 6.75391C171.402 6.83203 171.319 6.92643 171.264 7.03711C171.209 7.14779 171.181 7.27311 171.181 7.41309C171.181 7.55306 171.214 7.68164 171.279 7.79883C171.344 7.91276 171.438 8.00228 171.562 8.06738C171.689 8.13249 171.842 8.16504 172.021 8.16504C172.262 8.16504 172.472 8.11621 172.651 8.01855C172.833 7.91764 172.976 7.79557 173.08 7.65234C173.185 7.50586 173.24 7.36751 173.246 7.2373L173.627 7.75977C173.588 7.89323 173.522 8.03646 173.427 8.18945C173.333 8.34245 173.209 8.48893 173.056 8.62891C172.906 8.76562 172.726 8.87793 172.514 8.96582C172.306 9.05371 172.065 9.09766 171.791 9.09766C171.446 9.09766 171.139 9.0293 170.869 8.89258C170.598 8.7526 170.387 8.56543 170.234 8.33105C170.081 8.09342 170.004 7.82487 170.004 7.52539C170.004 7.24544 170.056 6.99805 170.161 6.7832C170.268 6.5651 170.424 6.38281 170.629 6.23633C170.838 6.08984 171.092 5.97917 171.391 5.9043C171.691 5.82617 172.032 5.78711 172.416 5.78711H173.339ZM176.467 1.5V9H175.285V1.5H176.467ZM179.748 3.7168L177.448 6.26562L176.189 7.55469L175.881 6.55859L176.833 5.38184L178.327 3.7168H179.748ZM178.581 9L176.867 6.51953L177.61 5.69434L179.944 9H178.581ZM185.364 7.94043V5.4209C185.364 5.2321 185.33 5.06934 185.262 4.93262C185.193 4.7959 185.089 4.6901 184.949 4.61523C184.812 4.54036 184.64 4.50293 184.431 4.50293C184.239 4.50293 184.073 4.53548 183.933 4.60059C183.793 4.66569 183.684 4.75358 183.606 4.86426C183.528 4.97493 183.489 5.10026 183.489 5.24023H182.317C182.317 5.0319 182.368 4.83008 182.469 4.63477C182.569 4.43945 182.716 4.2653 182.908 4.1123C183.1 3.95931 183.33 3.83887 183.596 3.75098C183.863 3.66309 184.163 3.61914 184.495 3.61914C184.892 3.61914 185.244 3.68587 185.55 3.81934C185.859 3.9528 186.101 4.15462 186.277 4.4248C186.456 4.69173 186.546 5.02702 186.546 5.43066V7.7793C186.546 8.02018 186.562 8.23665 186.595 8.42871C186.63 8.61751 186.681 8.7819 186.746 8.92188V9H185.54C185.485 8.87305 185.441 8.71191 185.408 8.5166C185.379 8.31803 185.364 8.12598 185.364 7.94043ZM185.535 5.78711L185.545 6.51465H184.7C184.482 6.51465 184.29 6.53581 184.124 6.57812C183.958 6.61719 183.819 6.67578 183.709 6.75391C183.598 6.83203 183.515 6.92643 183.46 7.03711C183.404 7.14779 183.377 7.27311 183.377 7.41309C183.377 7.55306 183.409 7.68164 183.474 7.79883C183.54 7.91276 183.634 8.00228 183.758 8.06738C183.885 8.13249 184.038 8.16504 184.217 8.16504C184.457 8.16504 184.667 8.11621 184.846 8.01855C185.029 7.91764 185.172 7.79557 185.276 7.65234C185.38 7.50586 185.436 7.36751 185.442 7.2373L185.823 7.75977C185.784 7.89323 185.717 8.03646 185.623 8.18945C185.528 8.34245 185.405 8.48893 185.252 8.62891C185.102 8.76562 184.921 8.87793 184.71 8.96582C184.501 9.05371 184.261 9.09766 183.987 9.09766C183.642 9.09766 183.334 9.0293 183.064 8.89258C182.794 8.7526 182.582 8.56543 182.429 8.33105C182.276 8.09342 182.2 7.82487 182.2 7.52539C182.2 7.24544 182.252 6.99805 182.356 6.7832C182.464 6.5651 182.62 6.38281 182.825 6.23633C183.033 6.08984 183.287 5.97917 183.587 5.9043C183.886 5.82617 184.228 5.78711 184.612 5.78711H185.535ZM188.663 1.5V9H187.481V1.5H188.663ZM191.944 3.7168L189.644 6.26562L188.384 7.55469L188.077 6.55859L189.029 5.38184L190.523 3.7168H191.944ZM190.777 9L189.063 6.51953L189.805 5.69434L192.139 9H190.777ZM195.37 7.94043V5.4209C195.37 5.2321 195.335 5.06934 195.267 4.93262C195.199 4.7959 195.094 4.6901 194.954 4.61523C194.818 4.54036 194.645 4.50293 194.437 4.50293C194.245 4.50293 194.079 4.53548 193.939 4.60059C193.799 4.66569 193.69 4.75358 193.612 4.86426C193.534 4.97493 193.495 5.10026 193.495 5.24023H192.323C192.323 5.0319 192.373 4.83008 192.474 4.63477C192.575 4.43945 192.721 4.2653 192.913 4.1123C193.106 3.95931 193.335 3.83887 193.602 3.75098C193.869 3.66309 194.168 3.61914 194.5 3.61914C194.898 3.61914 195.249 3.68587 195.555 3.81934C195.864 3.9528 196.107 4.15462 196.283 4.4248C196.462 4.69173 196.551 5.02702 196.551 5.43066V7.7793C196.551 8.02018 196.567 8.23665 196.6 8.42871C196.636 8.61751 196.686 8.7819 196.751 8.92188V9H195.545C195.49 8.87305 195.446 8.71191 195.413 8.5166C195.384 8.31803 195.37 8.12598 195.37 7.94043ZM195.54 5.78711L195.55 6.51465H194.705C194.487 6.51465 194.295 6.53581 194.129 6.57812C193.963 6.61719 193.825 6.67578 193.714 6.75391C193.604 6.83203 193.521 6.92643 193.465 7.03711C193.41 7.14779 193.382 7.27311 193.382 7.41309C193.382 7.55306 193.415 7.68164 193.48 7.79883C193.545 7.91276 193.639 8.00228 193.763 8.06738C193.89 8.13249 194.043 8.16504 194.222 8.16504C194.463 8.16504 194.673 8.11621 194.852 8.01855C195.034 7.91764 195.177 7.79557 195.282 7.65234C195.386 7.50586 195.441 7.36751 195.448 7.2373L195.829 7.75977C195.789 7.89323 195.723 8.03646 195.628 8.18945C195.534 8.34245 195.41 8.48893 195.257 8.62891C195.107 8.76562 194.927 8.87793 194.715 8.96582C194.507 9.05371 194.266 9.09766 193.993 9.09766C193.648 9.09766 193.34 9.0293 193.07 8.89258C192.8 8.7526 192.588 8.56543 192.435 8.33105C192.282 8.09342 192.205 7.82487 192.205 7.52539C192.205 7.24544 192.258 6.99805 192.362 6.7832C192.469 6.5651 192.625 6.38281 192.83 6.23633C193.039 6.08984 193.293 5.97917 193.592 5.9043C193.892 5.82617 194.233 5.78711 194.618 5.78711H195.54ZM198.649 4.84473V9H197.472V3.7168H198.58L198.649 4.84473ZM198.439 6.16309L198.058 6.1582C198.061 5.78385 198.113 5.44043 198.214 5.12793C198.318 4.81543 198.461 4.54688 198.644 4.32227C198.829 4.09766 199.051 3.92513 199.308 3.80469C199.565 3.68099 199.851 3.61914 200.167 3.61914C200.421 3.61914 200.651 3.65495 200.856 3.72656C201.064 3.79492 201.241 3.90723 201.388 4.06348C201.538 4.21973 201.652 4.42318 201.73 4.67383C201.808 4.92122 201.847 5.22559 201.847 5.58691V9H200.665V5.58203C200.665 5.32812 200.628 5.12793 200.553 4.98145C200.481 4.83171 200.376 4.72591 200.236 4.66406C200.099 4.59896 199.928 4.56641 199.723 4.56641C199.521 4.56641 199.34 4.60872 199.181 4.69336C199.021 4.77799 198.886 4.89355 198.776 5.04004C198.668 5.18652 198.585 5.35579 198.527 5.54785C198.468 5.73991 198.439 5.94499 198.439 6.16309ZM208.161 7.90625V1.5H209.343V9H208.273L208.161 7.90625ZM204.723 6.41699V6.31445C204.723 5.91406 204.771 5.54948 204.865 5.2207C204.959 4.88867 205.096 4.60384 205.275 4.36621C205.454 4.12533 205.672 3.94141 205.929 3.81445C206.187 3.68424 206.476 3.61914 206.799 3.61914C207.118 3.61914 207.398 3.68099 207.638 3.80469C207.879 3.92839 208.084 4.10579 208.254 4.33691C208.423 4.56478 208.558 4.83822 208.659 5.15723C208.76 5.47298 208.832 5.82454 208.874 6.21191V6.53906C208.832 6.91667 208.76 7.26172 208.659 7.57422C208.558 7.88672 208.423 8.1569 208.254 8.38477C208.084 8.61263 207.878 8.78841 207.634 8.91211C207.393 9.03581 207.111 9.09766 206.789 9.09766C206.47 9.09766 206.182 9.03092 205.925 8.89746C205.671 8.764 205.454 8.57682 205.275 8.33594C205.096 8.09505 204.959 7.81185 204.865 7.48633C204.771 7.15755 204.723 6.80111 204.723 6.41699ZM205.9 6.31445V6.41699C205.9 6.65788 205.921 6.88249 205.964 7.09082C206.009 7.29915 206.079 7.48307 206.174 7.64258C206.268 7.79883 206.39 7.92253 206.54 8.01367C206.693 8.10156 206.875 8.14551 207.087 8.14551C207.354 8.14551 207.573 8.08691 207.746 7.96973C207.918 7.85254 208.054 7.69466 208.151 7.49609C208.252 7.29427 208.32 7.06966 208.356 6.82227V5.93848C208.337 5.74642 208.296 5.56738 208.234 5.40137C208.176 5.23535 208.096 5.09049 207.995 4.9668C207.894 4.83984 207.769 4.74219 207.619 4.67383C207.472 4.60221 207.298 4.56641 207.096 4.56641C206.882 4.56641 206.699 4.61198 206.55 4.70312C206.4 4.79427 206.276 4.9196 206.179 5.0791C206.084 5.23861 206.014 5.42415 205.969 5.63574C205.923 5.84733 205.9 6.07357 205.9 6.31445ZM211.533 3.7168V9H210.351V3.7168H211.533ZM210.273 2.33008C210.273 2.15104 210.332 2.00293 210.449 1.88574C210.569 1.7653 210.735 1.70508 210.947 1.70508C211.155 1.70508 211.32 1.7653 211.44 1.88574C211.56 2.00293 211.621 2.15104 211.621 2.33008C211.621 2.50586 211.56 2.65234 211.44 2.76953C211.32 2.88672 211.155 2.94531 210.947 2.94531C210.735 2.94531 210.569 2.88672 210.449 2.76953C210.332 2.65234 210.273 2.50586 210.273 2.33008ZM213.704 4.73242V11.0312H212.527V3.7168H213.611L213.704 4.73242ZM217.146 6.30957V6.41211C217.146 6.79622 217.1 7.15267 217.009 7.48145C216.921 7.80697 216.789 8.0918 216.614 8.33594C216.441 8.57682 216.228 8.764 215.974 8.89746C215.72 9.03092 215.427 9.09766 215.095 9.09766C214.766 9.09766 214.478 9.03743 214.231 8.91699C213.987 8.79329 213.78 8.61914 213.611 8.39453C213.441 8.16992 213.305 7.90625 213.201 7.60352C213.1 7.29753 213.028 6.96224 212.986 6.59766V6.20215C213.028 5.81478 213.1 5.46322 213.201 5.14746C213.305 4.83171 213.441 4.5599 213.611 4.33203C213.78 4.10417 213.987 3.92839 214.231 3.80469C214.475 3.68099 214.76 3.61914 215.085 3.61914C215.417 3.61914 215.712 3.68424 215.969 3.81445C216.226 3.94141 216.443 4.1237 216.619 4.36133C216.794 4.5957 216.926 4.87891 217.014 5.21094C217.102 5.53971 217.146 5.90592 217.146 6.30957ZM215.969 6.41211V6.30957C215.969 6.06543 215.946 5.83919 215.901 5.63086C215.855 5.41927 215.784 5.23372 215.686 5.07422C215.588 4.91471 215.463 4.79102 215.31 4.70312C215.16 4.61198 214.98 4.56641 214.768 4.56641C214.56 4.56641 214.381 4.60221 214.231 4.67383C214.081 4.74219 213.956 4.83822 213.855 4.96191C213.754 5.08561 213.676 5.23047 213.621 5.39648C213.565 5.55924 213.526 5.73665 213.503 5.92871V6.87598C213.542 7.11035 213.609 7.3252 213.704 7.52051C213.798 7.71582 213.931 7.87207 214.104 7.98926C214.28 8.10319 214.504 8.16016 214.778 8.16016C214.989 8.16016 215.17 8.11458 215.32 8.02344C215.469 7.93229 215.592 7.80697 215.686 7.64746C215.784 7.4847 215.855 7.29753 215.901 7.08594C215.946 6.87435 215.969 6.64974 215.969 6.41211ZM220.176 9.09766C219.785 9.09766 219.432 9.03418 219.116 8.90723C218.804 8.77702 218.537 8.59635 218.316 8.36523C218.098 8.13411 217.93 7.8623 217.813 7.5498C217.696 7.2373 217.637 6.90039 217.637 6.53906V6.34375C217.637 5.93034 217.697 5.55599 217.818 5.2207C217.938 4.88542 218.106 4.59896 218.321 4.36133C218.535 4.12044 218.789 3.93652 219.082 3.80957C219.375 3.68262 219.693 3.61914 220.034 3.61914C220.412 3.61914 220.742 3.68262 221.026 3.80957C221.309 3.93652 221.543 4.11556 221.729 4.34668C221.918 4.57454 222.057 4.84635 222.149 5.16211C222.243 5.47786 222.29 5.82617 222.29 6.20703V6.70996H218.208V5.86523H221.128V5.77246C221.122 5.56087 221.079 5.3623 221.001 5.17676C220.926 4.99121 220.811 4.84147 220.654 4.72754C220.498 4.61361 220.29 4.55664 220.029 4.55664C219.834 4.55664 219.66 4.59896 219.507 4.68359C219.357 4.76497 219.232 4.88379 219.131 5.04004C219.03 5.19629 218.952 5.38509 218.897 5.60645C218.845 5.82454 218.819 6.07031 218.819 6.34375V6.53906C218.819 6.77018 218.849 6.98503 218.911 7.18359C218.976 7.37891 219.071 7.5498 219.195 7.69629C219.318 7.84277 219.468 7.95833 219.644 8.04297C219.82 8.12435 220.02 8.16504 220.244 8.16504C220.528 8.16504 220.78 8.10807 221.001 7.99414C221.223 7.88021 221.415 7.71908 221.577 7.51074L222.197 8.11133C222.084 8.27734 221.935 8.43685 221.753 8.58984C221.571 8.73958 221.348 8.86165 221.084 8.95605C220.824 9.05046 220.521 9.09766 220.176 9.09766ZM224.09 4.72266V9H222.913V3.7168H224.036L224.09 4.72266ZM225.706 3.68262L225.696 4.77637C225.625 4.76335 225.547 4.75358 225.462 4.74707C225.381 4.74056 225.299 4.7373 225.218 4.7373C225.016 4.7373 224.839 4.7666 224.686 4.8252C224.533 4.88053 224.404 4.96191 224.3 5.06934C224.199 5.1735 224.121 5.30046 224.065 5.4502C224.01 5.59993 223.978 5.76758 223.968 5.95312L223.699 5.97266C223.699 5.64062 223.732 5.33301 223.797 5.0498C223.862 4.7666 223.96 4.51758 224.09 4.30273C224.223 4.08789 224.389 3.92025 224.588 3.7998C224.79 3.67936 225.022 3.61914 225.286 3.61914C225.358 3.61914 225.434 3.62565 225.516 3.63867C225.6 3.65169 225.664 3.66634 225.706 3.68262ZM229.429 3.7168H230.499V8.85352C230.499 9.32878 230.398 9.73242 230.196 10.0645C229.994 10.3965 229.713 10.6488 229.351 10.8213C228.99 10.9971 228.572 11.085 228.096 11.085C227.895 11.085 227.67 11.0557 227.423 10.9971C227.179 10.9385 226.941 10.8441 226.71 10.7139C226.482 10.5869 226.291 10.4193 226.138 10.2109L226.69 9.51758C226.879 9.74219 227.087 9.90658 227.315 10.0107C227.543 10.1149 227.782 10.167 228.033 10.167C228.303 10.167 228.533 10.1165 228.721 10.0156C228.914 9.91797 229.062 9.77311 229.166 9.58105C229.27 9.389 229.322 9.15462 229.322 8.87793V4.91309L229.429 3.7168ZM225.841 6.41699V6.31445C225.841 5.91406 225.889 5.54948 225.987 5.2207C226.085 4.88867 226.225 4.60384 226.407 4.36621C226.589 4.12533 226.811 3.94141 227.071 3.81445C227.332 3.68424 227.626 3.61914 227.955 3.61914C228.297 3.61914 228.588 3.68099 228.829 3.80469C229.073 3.92839 229.276 4.10579 229.439 4.33691C229.602 4.56478 229.729 4.83822 229.82 5.15723C229.915 5.47298 229.985 5.82454 230.03 6.21191V6.53906C229.988 6.91667 229.916 7.26172 229.815 7.57422C229.714 7.88672 229.581 8.1569 229.415 8.38477C229.249 8.61263 229.044 8.78841 228.8 8.91211C228.559 9.03581 228.274 9.09766 227.945 9.09766C227.623 9.09766 227.332 9.03092 227.071 8.89746C226.814 8.764 226.593 8.57682 226.407 8.33594C226.225 8.09505 226.085 7.81185 225.987 7.48633C225.889 7.15755 225.841 6.80111 225.841 6.41699ZM227.017 6.31445V6.41699C227.017 6.65788 227.04 6.88249 227.086 7.09082C227.135 7.29915 227.208 7.48307 227.305 7.64258C227.406 7.79883 227.533 7.92253 227.686 8.01367C227.843 8.10156 228.026 8.14551 228.238 8.14551C228.515 8.14551 228.741 8.08691 228.917 7.96973C229.096 7.85254 229.233 7.69466 229.327 7.49609C229.425 7.29427 229.493 7.06966 229.532 6.82227V5.93848C229.512 5.74642 229.472 5.56738 229.41 5.40137C229.351 5.23535 229.272 5.09049 229.171 4.9668C229.07 4.83984 228.943 4.74219 228.79 4.67383C228.637 4.60221 228.456 4.56641 228.248 4.56641C228.036 4.56641 227.852 4.61198 227.696 4.70312C227.54 4.79427 227.411 4.9196 227.31 5.0791C227.213 5.23861 227.139 5.42415 227.091 5.63574C227.042 5.84733 227.017 6.07357 227.017 6.31445ZM234.598 7.75488V3.7168H235.78V9H234.667L234.598 7.75488ZM234.764 6.65625L235.16 6.64648C235.16 7.0013 235.121 7.32845 235.043 7.62793C234.964 7.92415 234.844 8.18294 234.681 8.4043C234.518 8.6224 234.31 8.79329 234.056 8.91699C233.802 9.03743 233.498 9.09766 233.143 9.09766C232.886 9.09766 232.65 9.06022 232.435 8.98535C232.22 8.91048 232.035 8.79492 231.879 8.63867C231.726 8.48242 231.607 8.27897 231.522 8.02832C231.437 7.77767 231.395 7.47819 231.395 7.12988V3.7168H232.572V7.13965C232.572 7.33171 232.595 7.49284 232.64 7.62305C232.686 7.75 232.748 7.85254 232.826 7.93066C232.904 8.00879 232.995 8.06413 233.099 8.09668C233.203 8.12923 233.314 8.14551 233.431 8.14551C233.767 8.14551 234.03 8.0804 234.222 7.9502C234.418 7.81673 234.556 7.6377 234.637 7.41309C234.722 7.18848 234.764 6.9362 234.764 6.65625ZM237.853 4.84473V9H236.676V3.7168H237.785L237.853 4.84473ZM237.643 6.16309L237.262 6.1582C237.265 5.78385 237.317 5.44043 237.418 5.12793C237.523 4.81543 237.666 4.54688 237.848 4.32227C238.034 4.09766 238.255 3.92513 238.512 3.80469C238.769 3.68099 239.056 3.61914 239.371 3.61914C239.625 3.61914 239.855 3.65495 240.06 3.72656C240.268 3.79492 240.446 3.90723 240.592 4.06348C240.742 4.21973 240.856 4.42318 240.934 4.67383C241.012 4.92122 241.051 5.22559 241.051 5.58691V9H239.87V5.58203C239.87 5.32812 239.832 5.12793 239.757 4.98145C239.686 4.83171 239.58 4.72591 239.44 4.66406C239.303 4.59896 239.132 4.56641 238.927 4.56641C238.725 4.56641 238.545 4.60872 238.385 4.69336C238.226 4.77799 238.091 4.89355 237.98 5.04004C237.872 5.18652 237.789 5.35579 237.731 5.54785C237.672 5.73991 237.643 5.94499 237.643 6.16309ZM244.931 7.94043V5.4209C244.931 5.2321 244.897 5.06934 244.828 4.93262C244.76 4.7959 244.656 4.6901 244.516 4.61523C244.379 4.54036 244.207 4.50293 243.998 4.50293C243.806 4.50293 243.64 4.53548 243.5 4.60059C243.36 4.66569 243.251 4.75358 243.173 4.86426C243.095 4.97493 243.056 5.10026 243.056 5.24023H241.884C241.884 5.0319 241.934 4.83008 242.035 4.63477C242.136 4.43945 242.283 4.2653 242.475 4.1123C242.667 3.95931 242.896 3.83887 243.163 3.75098C243.43 3.66309 243.73 3.61914 244.062 3.61914C244.459 3.61914 244.81 3.68587 245.116 3.81934C245.426 3.9528 245.668 4.15462 245.844 4.4248C246.023 4.69173 246.113 5.02702 246.113 5.43066V7.7793C246.113 8.02018 246.129 8.23665 246.161 8.42871C246.197 8.61751 246.248 8.7819 246.313 8.92188V9H245.107C245.051 8.87305 245.007 8.71191 244.975 8.5166C244.946 8.31803 244.931 8.12598 244.931 7.94043ZM245.102 5.78711L245.112 6.51465H244.267C244.049 6.51465 243.857 6.53581 243.691 6.57812C243.525 6.61719 243.386 6.67578 243.276 6.75391C243.165 6.83203 243.082 6.92643 243.027 7.03711C242.971 7.14779 242.944 7.27311 242.944 7.41309C242.944 7.55306 242.976 7.68164 243.041 7.79883C243.106 7.91276 243.201 8.00228 243.324 8.06738C243.451 8.13249 243.604 8.16504 243.783 8.16504C244.024 8.16504 244.234 8.11621 244.413 8.01855C244.596 7.91764 244.739 7.79557 244.843 7.65234C244.947 7.50586 245.002 7.36751 245.009 7.2373L245.39 7.75977C245.351 7.89323 245.284 8.03646 245.19 8.18945C245.095 8.34245 244.972 8.48893 244.819 8.62891C244.669 8.76562 244.488 8.87793 244.277 8.96582C244.068 9.05371 243.827 9.09766 243.554 9.09766C243.209 9.09766 242.901 9.0293 242.631 8.89258C242.361 8.7526 242.149 8.56543 241.996 8.33105C241.843 8.09342 241.767 7.82487 241.767 7.52539C241.767 7.24544 241.819 6.99805 241.923 6.7832C242.03 6.5651 242.187 6.38281 242.392 6.23633C242.6 6.08984 242.854 5.97917 243.154 5.9043C243.453 5.82617 243.795 5.78711 244.179 5.78711H245.102ZM248.229 1.5V9H247.048V1.5H248.229ZM251.511 3.7168L249.211 6.26562L247.951 7.55469L247.644 6.55859L248.596 5.38184L250.09 3.7168H251.511ZM250.344 9L248.63 6.51953L249.372 5.69434L251.706 9H250.344ZM254.936 7.94043V5.4209C254.936 5.2321 254.902 5.06934 254.834 4.93262C254.765 4.7959 254.661 4.6901 254.521 4.61523C254.385 4.54036 254.212 4.50293 254.004 4.50293C253.812 4.50293 253.646 4.53548 253.506 4.60059C253.366 4.66569 253.257 4.75358 253.179 4.86426C253.1 4.97493 253.061 5.10026 253.061 5.24023H251.889C251.889 5.0319 251.94 4.83008 252.041 4.63477C252.142 4.43945 252.288 4.2653 252.48 4.1123C252.672 3.95931 252.902 3.83887 253.169 3.75098C253.436 3.66309 253.735 3.61914 254.067 3.61914C254.464 3.61914 254.816 3.68587 255.122 3.81934C255.431 3.9528 255.674 4.15462 255.849 4.4248C256.028 4.69173 256.118 5.02702 256.118 5.43066V7.7793C256.118 8.02018 256.134 8.23665 256.167 8.42871C256.203 8.61751 256.253 8.7819 256.318 8.92188V9H255.112C255.057 8.87305 255.013 8.71191 254.98 8.5166C254.951 8.31803 254.936 8.12598 254.936 7.94043ZM255.107 5.78711L255.117 6.51465H254.272C254.054 6.51465 253.862 6.53581 253.696 6.57812C253.53 6.61719 253.392 6.67578 253.281 6.75391C253.17 6.83203 253.087 6.92643 253.032 7.03711C252.977 7.14779 252.949 7.27311 252.949 7.41309C252.949 7.55306 252.982 7.68164 253.047 7.79883C253.112 7.91276 253.206 8.00228 253.33 8.06738C253.457 8.13249 253.61 8.16504 253.789 8.16504C254.03 8.16504 254.24 8.11621 254.419 8.01855C254.601 7.91764 254.744 7.79557 254.848 7.65234C254.953 7.50586 255.008 7.36751 255.014 7.2373L255.395 7.75977C255.356 7.89323 255.29 8.03646 255.195 8.18945C255.101 8.34245 254.977 8.48893 254.824 8.62891C254.674 8.76562 254.494 8.87793 254.282 8.96582C254.074 9.05371 253.833 9.09766 253.559 9.09766C253.214 9.09766 252.907 9.0293 252.637 8.89258C252.366 8.7526 252.155 8.56543 252.002 8.33105C251.849 8.09342 251.772 7.82487 251.772 7.52539C251.772 7.24544 251.824 6.99805 251.929 6.7832C252.036 6.5651 252.192 6.38281 252.397 6.23633C252.606 6.08984 252.86 5.97917 253.159 5.9043C253.458 5.82617 253.8 5.78711 254.184 5.78711H255.107ZM258.215 4.84473V9H257.039V3.7168H258.147L258.215 4.84473ZM258.005 6.16309L257.625 6.1582C257.628 5.78385 257.68 5.44043 257.781 5.12793C257.885 4.81543 258.028 4.54688 258.211 4.32227C258.396 4.09766 258.617 3.92513 258.875 3.80469C259.132 3.68099 259.418 3.61914 259.734 3.61914C259.988 3.61914 260.217 3.65495 260.422 3.72656C260.631 3.79492 260.808 3.90723 260.955 4.06348C261.104 4.21973 261.218 4.42318 261.296 4.67383C261.375 4.92122 261.414 5.22559 261.414 5.58691V9H260.232V5.58203C260.232 5.32812 260.195 5.12793 260.12 4.98145C260.048 4.83171 259.942 4.72591 259.802 4.66406C259.666 4.59896 259.495 4.56641 259.29 4.56641C259.088 4.56641 258.907 4.60872 258.748 4.69336C258.588 4.77799 258.453 4.89355 258.342 5.04004C258.235 5.18652 258.152 5.35579 258.093 5.54785C258.035 5.73991 258.005 5.94499 258.005 6.16309ZM266.927 3.7168V4.57617H263.948V3.7168H266.927ZM264.808 2.42285H265.985V7.54004C265.985 7.7028 266.007 7.82812 266.053 7.91602C266.102 8.00065 266.168 8.05762 266.253 8.08691C266.338 8.11621 266.437 8.13086 266.551 8.13086C266.632 8.13086 266.71 8.12598 266.785 8.11621C266.86 8.10645 266.92 8.09668 266.966 8.08691L266.971 8.98535C266.873 9.01465 266.759 9.04069 266.629 9.06348C266.502 9.08626 266.356 9.09766 266.19 9.09766C265.919 9.09766 265.68 9.05046 265.472 8.95605C265.264 8.8584 265.101 8.70052 264.984 8.48242C264.866 8.26432 264.808 7.97461 264.808 7.61328V2.42285ZM270.514 7.94043V5.4209C270.514 5.2321 270.479 5.06934 270.411 4.93262C270.343 4.7959 270.239 4.6901 270.099 4.61523C269.962 4.54036 269.789 4.50293 269.581 4.50293C269.389 4.50293 269.223 4.53548 269.083 4.60059C268.943 4.66569 268.834 4.75358 268.756 4.86426C268.678 4.97493 268.639 5.10026 268.639 5.24023H267.467C267.467 5.0319 267.517 4.83008 267.618 4.63477C267.719 4.43945 267.866 4.2653 268.058 4.1123C268.25 3.95931 268.479 3.83887 268.746 3.75098C269.013 3.66309 269.312 3.61914 269.645 3.61914C270.042 3.61914 270.393 3.68587 270.699 3.81934C271.008 3.9528 271.251 4.15462 271.427 4.4248C271.606 4.69173 271.695 5.02702 271.695 5.43066V7.7793C271.695 8.02018 271.712 8.23665 271.744 8.42871C271.78 8.61751 271.83 8.7819 271.896 8.92188V9H270.689C270.634 8.87305 270.59 8.71191 270.558 8.5166C270.528 8.31803 270.514 8.12598 270.514 7.94043ZM270.685 5.78711L270.694 6.51465H269.85C269.632 6.51465 269.439 6.53581 269.273 6.57812C269.107 6.61719 268.969 6.67578 268.858 6.75391C268.748 6.83203 268.665 6.92643 268.609 7.03711C268.554 7.14779 268.526 7.27311 268.526 7.41309C268.526 7.55306 268.559 7.68164 268.624 7.79883C268.689 7.91276 268.784 8.00228 268.907 8.06738C269.034 8.13249 269.187 8.16504 269.366 8.16504C269.607 8.16504 269.817 8.11621 269.996 8.01855C270.178 7.91764 270.322 7.79557 270.426 7.65234C270.53 7.50586 270.585 7.36751 270.592 7.2373L270.973 7.75977C270.934 7.89323 270.867 8.03646 270.772 8.18945C270.678 8.34245 270.554 8.48893 270.401 8.62891C270.252 8.76562 270.071 8.87793 269.859 8.96582C269.651 9.05371 269.41 9.09766 269.137 9.09766C268.792 9.09766 268.484 9.0293 268.214 8.89258C267.944 8.7526 267.732 8.56543 267.579 8.33105C267.426 8.09342 267.35 7.82487 267.35 7.52539C267.35 7.24544 267.402 6.99805 267.506 6.7832C267.613 6.5651 267.77 6.38281 267.975 6.23633C268.183 6.08984 268.437 5.97917 268.736 5.9043C269.036 5.82617 269.378 5.78711 269.762 5.78711H270.685ZM273.793 4.84473V9H272.616V3.7168H273.724L273.793 4.84473ZM273.583 6.16309L273.202 6.1582C273.205 5.78385 273.257 5.44043 273.358 5.12793C273.462 4.81543 273.606 4.54688 273.788 4.32227C273.973 4.09766 274.195 3.92513 274.452 3.80469C274.709 3.68099 274.996 3.61914 275.311 3.61914C275.565 3.61914 275.795 3.65495 276 3.72656C276.208 3.79492 276.386 3.90723 276.532 4.06348C276.682 4.21973 276.796 4.42318 276.874 4.67383C276.952 4.92122 276.991 5.22559 276.991 5.58691V9H275.809V5.58203C275.809 5.32812 275.772 5.12793 275.697 4.98145C275.625 4.83171 275.52 4.72591 275.38 4.66406C275.243 4.59896 275.072 4.56641 274.867 4.56641C274.665 4.56641 274.485 4.60872 274.325 4.69336C274.165 4.77799 274.03 4.89355 273.92 5.04004C273.812 5.18652 273.729 5.35579 273.671 5.54785C273.612 5.73991 273.583 5.94499 273.583 6.16309ZM279.074 4.73242V11.0312H277.897V3.7168H278.981L279.074 4.73242ZM282.516 6.30957V6.41211C282.516 6.79622 282.471 7.15267 282.379 7.48145C282.292 7.80697 282.16 8.0918 281.984 8.33594C281.811 8.57682 281.598 8.764 281.344 8.89746C281.09 9.03092 280.797 9.09766 280.465 9.09766C280.137 9.09766 279.849 9.03743 279.601 8.91699C279.357 8.79329 279.15 8.61914 278.981 8.39453C278.812 8.16992 278.675 7.90625 278.571 7.60352C278.47 7.29753 278.398 6.96224 278.356 6.59766V6.20215C278.398 5.81478 278.47 5.46322 278.571 5.14746C278.675 4.83171 278.812 4.5599 278.981 4.33203C279.15 4.10417 279.357 3.92839 279.601 3.80469C279.845 3.68099 280.13 3.61914 280.456 3.61914C280.788 3.61914 281.082 3.68424 281.339 3.81445C281.597 3.94141 281.813 4.1237 281.989 4.36133C282.165 4.5957 282.296 4.87891 282.384 5.21094C282.472 5.53971 282.516 5.90592 282.516 6.30957ZM281.339 6.41211V6.30957C281.339 6.06543 281.317 5.83919 281.271 5.63086C281.226 5.41927 281.154 5.23372 281.056 5.07422C280.959 4.91471 280.833 4.79102 280.68 4.70312C280.531 4.61198 280.35 4.56641 280.138 4.56641C279.93 4.56641 279.751 4.60221 279.601 4.67383C279.451 4.74219 279.326 4.83822 279.225 4.96191C279.124 5.08561 279.046 5.23047 278.991 5.39648C278.935 5.55924 278.896 5.73665 278.874 5.92871V6.87598C278.913 7.11035 278.979 7.3252 279.074 7.52051C279.168 7.71582 279.302 7.87207 279.474 7.98926C279.65 8.10319 279.875 8.16016 280.148 8.16016C280.36 8.16016 280.54 8.11458 280.69 8.02344C280.84 7.93229 280.962 7.80697 281.056 7.64746C281.154 7.4847 281.226 7.29753 281.271 7.08594C281.317 6.87435 281.339 6.64974 281.339 6.41211ZM286.196 7.94043V5.4209C286.196 5.2321 286.162 5.06934 286.093 4.93262C286.025 4.7959 285.921 4.6901 285.781 4.61523C285.644 4.54036 285.471 4.50293 285.263 4.50293C285.071 4.50293 284.905 4.53548 284.765 4.60059C284.625 4.66569 284.516 4.75358 284.438 4.86426C284.36 4.97493 284.321 5.10026 284.321 5.24023H283.149C283.149 5.0319 283.199 4.83008 283.3 4.63477C283.401 4.43945 283.548 4.2653 283.74 4.1123C283.932 3.95931 284.161 3.83887 284.428 3.75098C284.695 3.66309 284.995 3.61914 285.327 3.61914C285.724 3.61914 286.075 3.68587 286.381 3.81934C286.691 3.9528 286.933 4.15462 287.109 4.4248C287.288 4.69173 287.377 5.02702 287.377 5.43066V7.7793C287.377 8.02018 287.394 8.23665 287.426 8.42871C287.462 8.61751 287.512 8.7819 287.578 8.92188V9H286.371C286.316 8.87305 286.272 8.71191 286.24 8.5166C286.21 8.31803 286.196 8.12598 286.196 7.94043ZM286.367 5.78711L286.376 6.51465H285.532C285.314 6.51465 285.121 6.53581 284.955 6.57812C284.789 6.61719 284.651 6.67578 284.54 6.75391C284.43 6.83203 284.347 6.92643 284.291 7.03711C284.236 7.14779 284.208 7.27311 284.208 7.41309C284.208 7.55306 284.241 7.68164 284.306 7.79883C284.371 7.91276 284.466 8.00228 284.589 8.06738C284.716 8.13249 284.869 8.16504 285.048 8.16504C285.289 8.16504 285.499 8.11621 285.678 8.01855C285.86 7.91764 286.004 7.79557 286.108 7.65234C286.212 7.50586 286.267 7.36751 286.274 7.2373L286.655 7.75977C286.616 7.89323 286.549 8.03646 286.454 8.18945C286.36 8.34245 286.236 8.48893 286.083 8.62891C285.934 8.76562 285.753 8.87793 285.541 8.96582C285.333 9.05371 285.092 9.09766 284.819 9.09766C284.474 9.09766 284.166 9.0293 283.896 8.89258C283.626 8.7526 283.414 8.56543 283.261 8.33105C283.108 8.09342 283.032 7.82487 283.032 7.52539C283.032 7.24544 283.084 6.99805 283.188 6.7832C283.295 6.5651 283.452 6.38281 283.657 6.23633C283.865 6.08984 284.119 5.97917 284.418 5.9043C284.718 5.82617 285.06 5.78711 285.444 5.78711H286.367ZM29.7871 16.7324V23.0312H28.6104V15.7168H29.6943L29.7871 16.7324ZM33.2295 18.3096V18.4121C33.2295 18.7962 33.1839 19.1527 33.0928 19.4814C33.0049 19.807 32.873 20.0918 32.6973 20.3359C32.5247 20.5768 32.3115 20.764 32.0576 20.8975C31.8037 21.0309 31.5107 21.0977 31.1787 21.0977C30.8499 21.0977 30.5618 21.0374 30.3145 20.917C30.0703 20.7933 29.8636 20.6191 29.6943 20.3945C29.5251 20.1699 29.3883 19.9062 29.2842 19.6035C29.1833 19.2975 29.1117 18.9622 29.0693 18.5977V18.2021C29.1117 17.8148 29.1833 17.4632 29.2842 17.1475C29.3883 16.8317 29.5251 16.5599 29.6943 16.332C29.8636 16.1042 30.0703 15.9284 30.3145 15.8047C30.5586 15.681 30.8434 15.6191 31.1689 15.6191C31.501 15.6191 31.7956 15.6842 32.0527 15.8145C32.3099 15.9414 32.5264 16.1237 32.7021 16.3613C32.8779 16.5957 33.0098 16.8789 33.0977 17.2109C33.1855 17.5397 33.2295 17.9059 33.2295 18.3096ZM32.0527 18.4121V18.3096C32.0527 18.0654 32.0299 17.8392 31.9844 17.6309C31.9388 17.4193 31.8672 17.2337 31.7695 17.0742C31.6719 16.9147 31.5465 16.791 31.3936 16.7031C31.2438 16.612 31.0632 16.5664 30.8516 16.5664C30.6432 16.5664 30.4642 16.6022 30.3145 16.6738C30.1647 16.7422 30.0394 16.8382 29.9385 16.9619C29.8376 17.0856 29.7594 17.2305 29.7041 17.3965C29.6488 17.5592 29.6097 17.7367 29.5869 17.9287V18.876C29.626 19.1104 29.6927 19.3252 29.7871 19.5205C29.8815 19.7158 30.015 19.8721 30.1875 19.9893C30.3633 20.1032 30.5879 20.1602 30.8613 20.1602C31.0729 20.1602 31.2536 20.1146 31.4033 20.0234C31.5531 19.9323 31.6751 19.807 31.7695 19.6475C31.8672 19.4847 31.9388 19.2975 31.9844 19.0859C32.0299 18.8743 32.0527 18.6497 32.0527 18.4121ZM36.2596 21.0977C35.8689 21.0977 35.5158 21.0342 35.2 20.9072C34.8875 20.777 34.6206 20.5964 34.3992 20.3652C34.1811 20.1341 34.0135 19.8623 33.8963 19.5498C33.7791 19.2373 33.7205 18.9004 33.7205 18.5391V18.3438C33.7205 17.9303 33.7807 17.556 33.9012 17.2207C34.0216 16.8854 34.1893 16.599 34.4041 16.3613C34.6189 16.1204 34.8729 15.9365 35.1658 15.8096C35.4588 15.6826 35.7762 15.6191 36.118 15.6191C36.4956 15.6191 36.826 15.6826 37.1092 15.8096C37.3924 15.9365 37.6268 16.1156 37.8123 16.3467C38.0011 16.5745 38.1411 16.8464 38.2322 17.1621C38.3266 17.4779 38.3738 17.8262 38.3738 18.207V18.71H34.2918V17.8652H37.2117V17.7725C37.2052 17.5609 37.1629 17.3623 37.0848 17.1768C37.0099 16.9912 36.8943 16.8415 36.7381 16.7275C36.5818 16.6136 36.3735 16.5566 36.1131 16.5566C35.9178 16.5566 35.7436 16.599 35.5906 16.6836C35.4409 16.765 35.3156 16.8838 35.2146 17.04C35.1137 17.1963 35.0356 17.3851 34.9803 17.6064C34.9282 17.8245 34.9021 18.0703 34.9021 18.3438V18.5391C34.9021 18.7702 34.9331 18.985 34.9949 19.1836C35.06 19.3789 35.1544 19.5498 35.2781 19.6963C35.4018 19.8428 35.5516 19.9583 35.7273 20.043C35.9031 20.1243 36.1033 20.165 36.3279 20.165C36.6111 20.165 36.8634 20.1081 37.0848 19.9941C37.3061 19.8802 37.4982 19.7191 37.6609 19.5107L38.2811 20.1113C38.1671 20.2773 38.019 20.4368 37.8367 20.5898C37.6544 20.7396 37.4314 20.8617 37.1678 20.9561C36.9074 21.0505 36.6046 21.0977 36.2596 21.0977ZM40.1734 16.7227V21H38.9967V15.7168H40.1197L40.1734 16.7227ZM41.7896 15.6826L41.7799 16.7764C41.7083 16.7633 41.6301 16.7536 41.5455 16.7471C41.4641 16.7406 41.3827 16.7373 41.3014 16.7373C41.0995 16.7373 40.9221 16.7666 40.7691 16.8252C40.6161 16.8805 40.4876 16.9619 40.3834 17.0693C40.2825 17.1735 40.2044 17.3005 40.149 17.4502C40.0937 17.5999 40.0611 17.7676 40.0514 17.9531L39.7828 17.9727C39.7828 17.6406 39.8154 17.333 39.8805 17.0498C39.9456 16.7666 40.0432 16.5176 40.1734 16.3027C40.3069 16.0879 40.4729 15.9202 40.6715 15.7998C40.8733 15.6794 41.1061 15.6191 41.3697 15.6191C41.4413 15.6191 41.5178 15.6257 41.5992 15.6387C41.6839 15.6517 41.7473 15.6663 41.7896 15.6826ZM45.1908 19.5693C45.1908 19.4521 45.1615 19.3464 45.1029 19.252C45.0443 19.1543 44.932 19.0664 44.766 18.9883C44.6033 18.9102 44.3624 18.8385 44.0434 18.7734C43.7634 18.7116 43.5063 18.6383 43.2719 18.5537C43.0408 18.4658 42.8422 18.36 42.6762 18.2363C42.5102 18.1126 42.3816 17.9661 42.2904 17.7969C42.1993 17.6276 42.1537 17.4323 42.1537 17.2109C42.1537 16.9961 42.2009 16.7926 42.2953 16.6006C42.3897 16.4085 42.5248 16.2393 42.7006 16.0928C42.8764 15.9463 43.0896 15.8307 43.3402 15.7461C43.5941 15.6615 43.8773 15.6191 44.1898 15.6191C44.6326 15.6191 45.0118 15.694 45.3275 15.8438C45.6465 15.9902 45.8907 16.1904 46.06 16.4443C46.2292 16.695 46.3139 16.9782 46.3139 17.2939H45.1371C45.1371 17.154 45.1013 17.0238 45.0297 16.9033C44.9613 16.7796 44.8572 16.6803 44.7172 16.6055C44.5772 16.5273 44.4014 16.4883 44.1898 16.4883C43.988 16.4883 43.8204 16.5208 43.6869 16.5859C43.5567 16.6478 43.459 16.7292 43.3939 16.8301C43.3321 16.931 43.3012 17.0417 43.3012 17.1621C43.3012 17.25 43.3174 17.3298 43.35 17.4014C43.3858 17.4697 43.4444 17.5332 43.5258 17.5918C43.6072 17.6471 43.7178 17.6992 43.8578 17.748C44.001 17.7969 44.1801 17.8441 44.3949 17.8896C44.7986 17.9743 45.1452 18.0833 45.435 18.2168C45.7279 18.347 45.9525 18.5163 46.1088 18.7246C46.265 18.9297 46.3432 19.1901 46.3432 19.5059C46.3432 19.7402 46.2927 19.9551 46.1918 20.1504C46.0941 20.3424 45.9509 20.5101 45.7621 20.6533C45.5733 20.7933 45.3471 20.9023 45.0834 20.9805C44.823 21.0586 44.53 21.0977 44.2045 21.0977C43.726 21.0977 43.3207 21.013 42.9887 20.8438C42.6566 20.6712 42.4044 20.4515 42.2318 20.1846C42.0626 19.9144 41.9779 19.6344 41.9779 19.3447H43.1156C43.1286 19.5628 43.1889 19.737 43.2963 19.8672C43.407 19.9941 43.5437 20.0869 43.7064 20.1455C43.8725 20.2008 44.0434 20.2285 44.2191 20.2285C44.4307 20.2285 44.6081 20.2008 44.7514 20.1455C44.8946 20.0869 45.0036 20.0088 45.0785 19.9111C45.1534 19.8102 45.1908 19.6963 45.1908 19.5693ZM49.4025 21.0977C49.0119 21.0977 48.6587 21.0342 48.343 20.9072C48.0305 20.777 47.7635 20.5964 47.5422 20.3652C47.3241 20.1341 47.1564 19.8623 47.0393 19.5498C46.9221 19.2373 46.8635 18.9004 46.8635 18.5391V18.3438C46.8635 17.9303 46.9237 17.556 47.0441 17.2207C47.1646 16.8854 47.3322 16.599 47.5471 16.3613C47.7619 16.1204 48.0158 15.9365 48.3088 15.8096C48.6018 15.6826 48.9191 15.6191 49.2609 15.6191C49.6385 15.6191 49.9689 15.6826 50.2521 15.8096C50.5354 15.9365 50.7697 16.1156 50.9553 16.3467C51.1441 16.5745 51.284 16.8464 51.3752 17.1621C51.4696 17.4779 51.5168 17.8262 51.5168 18.207V18.71H47.4348V17.8652H50.3547V17.7725C50.3482 17.5609 50.3059 17.3623 50.2277 17.1768C50.1529 16.9912 50.0373 16.8415 49.8811 16.7275C49.7248 16.6136 49.5165 16.5566 49.2561 16.5566C49.0607 16.5566 48.8866 16.599 48.7336 16.6836C48.5839 16.765 48.4585 16.8838 48.3576 17.04C48.2567 17.1963 48.1786 17.3851 48.1232 17.6064C48.0712 17.8245 48.0451 18.0703 48.0451 18.3438V18.5391C48.0451 18.7702 48.076 18.985 48.1379 19.1836C48.203 19.3789 48.2974 19.5498 48.4211 19.6963C48.5448 19.8428 48.6945 19.9583 48.8703 20.043C49.0461 20.1243 49.2463 20.165 49.4709 20.165C49.7541 20.165 50.0064 20.1081 50.2277 19.9941C50.4491 19.8802 50.6411 19.7191 50.8039 19.5107L51.424 20.1113C51.3101 20.2773 51.162 20.4368 50.9797 20.5898C50.7974 20.7396 50.5744 20.8617 50.3107 20.9561C50.0503 21.0505 49.7476 21.0977 49.4025 21.0977ZM54.5566 15.7168V16.5762H51.5781V15.7168H54.5566ZM52.4375 14.4229H53.6143V19.54C53.6143 19.7028 53.637 19.8281 53.6826 19.916C53.7314 20.0007 53.7982 20.0576 53.8828 20.0869C53.9674 20.1162 54.0667 20.1309 54.1807 20.1309C54.262 20.1309 54.3402 20.126 54.415 20.1162C54.4899 20.1064 54.5501 20.0967 54.5957 20.0869L54.6006 20.9854C54.5029 21.0146 54.389 21.0407 54.2588 21.0635C54.1318 21.0863 53.9854 21.0977 53.8193 21.0977C53.5492 21.0977 53.3099 21.0505 53.1016 20.9561C52.8932 20.8584 52.7305 20.7005 52.6133 20.4824C52.4961 20.2643 52.4375 19.9746 52.4375 19.6133V14.4229ZM58.3436 19.7549V15.7168H59.5252V21H58.4119L58.3436 19.7549ZM58.5096 18.6562L58.9051 18.6465C58.9051 19.0013 58.866 19.3285 58.7879 19.6279C58.7098 19.9242 58.5893 20.1829 58.4266 20.4043C58.2638 20.6224 58.0555 20.7933 57.8016 20.917C57.5477 21.0374 57.2433 21.0977 56.8885 21.0977C56.6313 21.0977 56.3953 21.0602 56.1805 20.9854C55.9656 20.9105 55.7801 20.7949 55.6238 20.6387C55.4708 20.4824 55.352 20.279 55.2674 20.0283C55.1827 19.7777 55.1404 19.4782 55.1404 19.1299V15.7168H56.3172V19.1396C56.3172 19.3317 56.34 19.4928 56.3855 19.623C56.4311 19.75 56.493 19.8525 56.5711 19.9307C56.6492 20.0088 56.7404 20.0641 56.8445 20.0967C56.9487 20.1292 57.0594 20.1455 57.1766 20.1455C57.5118 20.1455 57.7755 20.0804 57.9676 19.9502C58.1629 19.8167 58.3012 19.6377 58.3826 19.4131C58.4673 19.1885 58.5096 18.9362 58.5096 18.6562ZM60.4898 15.7168H61.6715V21.459C61.6715 21.8203 61.6096 22.1247 61.4859 22.3721C61.3622 22.6227 61.1799 22.8115 60.9391 22.9385C60.6982 23.0687 60.4036 23.1338 60.0553 23.1338C59.9511 23.1338 59.8437 23.1257 59.733 23.1094C59.6191 23.0964 59.5117 23.0768 59.4107 23.0508L59.4156 22.1328C59.484 22.1458 59.5572 22.1556 59.6354 22.1621C59.7102 22.1719 59.7818 22.1768 59.8502 22.1768C59.9902 22.1768 60.1074 22.1523 60.2018 22.1035C60.2962 22.0547 60.3678 21.9782 60.4166 21.874C60.4654 21.7699 60.4898 21.6315 60.4898 21.459V15.7168ZM60.3873 14.3301C60.3873 14.151 60.4475 14.0029 60.568 13.8857C60.6884 13.7653 60.8528 13.7051 61.0611 13.7051C61.2727 13.7051 61.4371 13.7653 61.5543 13.8857C61.6747 14.0029 61.735 14.151 61.735 14.3301C61.735 14.5059 61.6747 14.6523 61.5543 14.7695C61.4371 14.8867 61.2727 14.9453 61.0611 14.9453C60.8528 14.9453 60.6884 14.8867 60.568 14.7695C60.4475 14.6523 60.3873 14.5059 60.3873 14.3301ZM65.8197 19.7549V15.7168H67.0014V21H65.8881L65.8197 19.7549ZM65.9857 18.6562L66.3812 18.6465C66.3812 19.0013 66.3422 19.3285 66.2641 19.6279C66.1859 19.9242 66.0655 20.1829 65.9027 20.4043C65.74 20.6224 65.5316 20.7933 65.2777 20.917C65.0238 21.0374 64.7195 21.0977 64.3646 21.0977C64.1075 21.0977 63.8715 21.0602 63.6566 20.9854C63.4418 20.9105 63.2562 20.7949 63.1 20.6387C62.947 20.4824 62.8282 20.279 62.7436 20.0283C62.6589 19.7777 62.6166 19.4782 62.6166 19.1299V15.7168H63.7934V19.1396C63.7934 19.3317 63.8161 19.4928 63.8617 19.623C63.9073 19.75 63.9691 19.8525 64.0473 19.9307C64.1254 20.0088 64.2165 20.0641 64.3207 20.0967C64.4249 20.1292 64.5355 20.1455 64.6527 20.1455C64.988 20.1455 65.2517 20.0804 65.4437 19.9502C65.6391 19.8167 65.7774 19.6377 65.8588 19.4131C65.9434 19.1885 65.9857 18.9362 65.9857 18.6562ZM70.8859 19.9404V17.4209C70.8859 17.2321 70.8518 17.0693 70.7834 16.9326C70.715 16.7959 70.6109 16.6901 70.4709 16.6152C70.3342 16.5404 70.1617 16.5029 69.9533 16.5029C69.7613 16.5029 69.5952 16.5355 69.4553 16.6006C69.3153 16.6657 69.2062 16.7536 69.1281 16.8643C69.05 16.9749 69.0109 17.1003 69.0109 17.2402H67.8391C67.8391 17.0319 67.8895 16.8301 67.9904 16.6348C68.0913 16.4395 68.2378 16.2653 68.4299 16.1123C68.6219 15.9593 68.8514 15.8389 69.1184 15.751C69.3853 15.6631 69.6848 15.6191 70.0168 15.6191C70.4139 15.6191 70.7655 15.6859 71.0715 15.8193C71.3807 15.9528 71.6232 16.1546 71.799 16.4248C71.9781 16.6917 72.0676 17.027 72.0676 17.4307V19.7793C72.0676 20.0202 72.0839 20.2367 72.1164 20.4287C72.1522 20.6175 72.2027 20.7819 72.2678 20.9219V21H71.0617C71.0064 20.873 70.9624 20.7119 70.9299 20.5166C70.9006 20.318 70.8859 20.126 70.8859 19.9404ZM71.0568 17.7871L71.0666 18.5146H70.2219C70.0038 18.5146 69.8117 18.5358 69.6457 18.5781C69.4797 18.6172 69.3413 18.6758 69.2307 18.7539C69.12 18.832 69.037 18.9264 68.9816 19.0371C68.9263 19.1478 68.8986 19.2731 68.8986 19.4131C68.8986 19.5531 68.9312 19.6816 68.9963 19.7988C69.0614 19.9128 69.1558 20.0023 69.2795 20.0674C69.4064 20.1325 69.5594 20.165 69.7385 20.165C69.9794 20.165 70.1893 20.1162 70.3684 20.0186C70.5507 19.9176 70.6939 19.7956 70.798 19.6523C70.9022 19.5059 70.9576 19.3675 70.9641 19.2373L71.3449 19.7598C71.3059 19.8932 71.2391 20.0365 71.1447 20.1895C71.0503 20.3424 70.9266 20.4889 70.7736 20.6289C70.6239 20.7656 70.4432 20.8779 70.2316 20.9658C70.0233 21.0537 69.7824 21.0977 69.509 21.0977C69.1639 21.0977 68.8563 21.0293 68.5861 20.8926C68.3159 20.7526 68.1044 20.5654 67.9514 20.3311C67.7984 20.0934 67.7219 19.8249 67.7219 19.5254C67.7219 19.2454 67.774 18.998 67.8781 18.7832C67.9855 18.5651 68.1418 18.3828 68.3469 18.2363C68.5552 18.0898 68.8091 17.9792 69.1086 17.9043C69.4081 17.8262 69.7499 17.7871 70.134 17.7871H71.0568ZM74.165 16.8447V21H72.9883V15.7168H74.0967L74.165 16.8447ZM73.9551 18.1631L73.5742 18.1582C73.5775 17.7839 73.6296 17.4404 73.7305 17.1279C73.8346 16.8154 73.9779 16.5469 74.1602 16.3223C74.3457 16.0977 74.5671 15.9251 74.8242 15.8047C75.0814 15.681 75.3678 15.6191 75.6836 15.6191C75.9375 15.6191 76.167 15.6549 76.3721 15.7266C76.5804 15.7949 76.7578 15.9072 76.9043 16.0635C77.054 16.2197 77.168 16.4232 77.2461 16.6738C77.3242 16.9212 77.3633 17.2256 77.3633 17.5869V21H76.1816V17.582C76.1816 17.3281 76.1442 17.1279 76.0693 16.9814C75.9977 16.8317 75.8919 16.7259 75.752 16.6641C75.6152 16.599 75.4443 16.5664 75.2393 16.5664C75.0374 16.5664 74.8568 16.6087 74.6973 16.6934C74.5378 16.778 74.4027 16.8936 74.292 17.04C74.1846 17.1865 74.1016 17.3558 74.043 17.5479C73.9844 17.7399 73.9551 17.945 73.9551 18.1631ZM79.4412 16.791V21H78.2645V15.7168H79.3729L79.4412 16.791ZM79.2508 18.1631L78.8504 18.1582C78.8504 17.7936 78.896 17.4567 78.9871 17.1475C79.0783 16.8382 79.2117 16.5697 79.3875 16.3418C79.5633 16.1107 79.7814 15.9333 80.0418 15.8096C80.3055 15.6826 80.6098 15.6191 80.9549 15.6191C81.1958 15.6191 81.4155 15.6549 81.6141 15.7266C81.8159 15.7949 81.99 15.904 82.1365 16.0537C82.2863 16.2035 82.4002 16.3955 82.4783 16.6299C82.5597 16.8643 82.6004 17.1475 82.6004 17.4795V21H81.4236V17.582C81.4236 17.3249 81.3846 17.123 81.3064 16.9766C81.2316 16.8301 81.1225 16.7259 80.9793 16.6641C80.8393 16.599 80.6717 16.5664 80.4764 16.5664C80.255 16.5664 80.0662 16.6087 79.91 16.6934C79.757 16.778 79.6316 16.8936 79.534 17.04C79.4363 17.1865 79.3647 17.3558 79.3191 17.5479C79.2736 17.7399 79.2508 17.945 79.2508 18.1631ZM82.5271 17.8506L81.9754 17.9727C81.9754 17.6536 82.0193 17.3525 82.1072 17.0693C82.1984 16.7829 82.3302 16.5322 82.5027 16.3174C82.6785 16.0993 82.895 15.9284 83.1521 15.8047C83.4093 15.681 83.7039 15.6191 84.0359 15.6191C84.3061 15.6191 84.547 15.6566 84.7586 15.7314C84.9734 15.8031 85.1557 15.917 85.3055 16.0732C85.4552 16.2295 85.5691 16.4329 85.6473 16.6836C85.7254 16.931 85.7645 17.2305 85.7645 17.582V21H84.5828V17.5771C84.5828 17.3102 84.5438 17.1035 84.4656 16.957C84.3908 16.8105 84.2833 16.7096 84.1434 16.6543C84.0034 16.5957 83.8357 16.5664 83.6404 16.5664C83.4581 16.5664 83.297 16.6006 83.157 16.6689C83.0203 16.734 82.9048 16.8268 82.8104 16.9473C82.716 17.0645 82.6443 17.1995 82.5955 17.3525C82.5499 17.5055 82.5271 17.6715 82.5271 17.8506ZM89.8541 19.7549V15.7168H91.0357V21H89.9225L89.8541 19.7549ZM90.0201 18.6562L90.4156 18.6465C90.4156 19.0013 90.3766 19.3285 90.2984 19.6279C90.2203 19.9242 90.0999 20.1829 89.9371 20.4043C89.7744 20.6224 89.566 20.7933 89.3121 20.917C89.0582 21.0374 88.7538 21.0977 88.399 21.0977C88.1419 21.0977 87.9059 21.0602 87.691 20.9854C87.4762 20.9105 87.2906 20.7949 87.1344 20.6387C86.9814 20.4824 86.8626 20.279 86.7779 20.0283C86.6933 19.7777 86.651 19.4782 86.651 19.1299V15.7168H87.8277V19.1396C87.8277 19.3317 87.8505 19.4928 87.8961 19.623C87.9417 19.75 88.0035 19.8525 88.0816 19.9307C88.1598 20.0088 88.2509 20.0641 88.3551 20.0967C88.4592 20.1292 88.5699 20.1455 88.6871 20.1455C89.0224 20.1455 89.2861 20.0804 89.4781 19.9502C89.6734 19.8167 89.8118 19.6377 89.8932 19.4131C89.9778 19.1885 90.0201 18.9362 90.0201 18.6562ZM91.9906 20.4141C91.9906 20.2318 92.0525 20.0788 92.1762 19.9551C92.2999 19.8281 92.4675 19.7646 92.6791 19.7646C92.8939 19.7646 93.0616 19.8281 93.182 19.9551C93.3057 20.0788 93.3676 20.2318 93.3676 20.4141C93.3676 20.5964 93.3057 20.7493 93.182 20.873C93.0616 20.9967 92.8939 21.0586 92.6791 21.0586C92.4675 21.0586 92.2999 20.9967 92.1762 20.873C92.0525 20.7493 91.9906 20.5964 91.9906 20.4141Z" fill="#989898"/>
<path fill-rule="evenodd" clip-rule="evenodd" d="M10 0C9.13751 0 7.69626 0.33125 6.34001 0.7C4.95251 1.075 3.55376 1.51875 2.73126 1.7875C2.38737 1.90106 2.0825 2.10933 1.85165 2.38838C1.62081 2.66742 1.47337 3.00592 1.42626 3.365C0.681257 8.96125 2.41001 13.1088 4.50751 15.8525C5.39698 17.0262 6.45754 18.0598 7.65376 18.9188C8.13626 19.26 8.58376 19.5212 8.96376 19.7C9.31376 19.865 9.69001 20 10 20C10.31 20 10.685 19.865 11.0363 19.7C11.4944 19.4773 11.9326 19.216 12.3463 18.9188C13.5425 18.0598 14.6031 17.0262 15.4925 15.8525C17.59 13.1088 19.3188 8.96125 18.5738 3.365C18.5267 3.00575 18.3793 2.66705 18.1485 2.38779C17.9177 2.10853 17.6127 1.90004 17.2688 1.78625C16.0748 1.39477 14.8715 1.03216 13.66 0.69875C12.3038 0.3325 10.8625 0 10 0ZM10 6.25C10.4428 6.24934 10.8715 6.40541 11.2103 6.69058C11.5491 6.97574 11.776 7.37159 11.8508 7.80801C11.9257 8.24444 11.8437 8.69328 11.6193 9.07503C11.3949 9.45678 11.0427 9.74681 10.625 9.89375L11.1063 12.3812C11.1238 12.4717 11.1211 12.565 11.0983 12.6543C11.0756 12.7436 11.0334 12.8267 10.9747 12.8978C10.916 12.9689 10.8424 13.0261 10.759 13.0654C10.6757 13.1047 10.5847 13.125 10.4925 13.125H9.50751C9.41546 13.1248 9.32458 13.1043 9.24138 13.065C9.15817 13.0256 9.08468 12.9684 9.02617 12.8973C8.96765 12.8263 8.92555 12.7432 8.90288 12.654C8.88021 12.5647 8.87752 12.4716 8.89501 12.3812L9.37501 9.89375C8.9573 9.74681 8.60507 9.45678 8.38071 9.07503C8.15636 8.69328 8.07434 8.24444 8.1492 7.80801C8.22406 7.37159 8.45096 6.97574 8.78971 6.69058C9.12846 6.40541 9.55721 6.24934 10 6.25Z" fill="black"/>
</svg>
