<svg width="108" height="13" viewBox="0 0 108 13" fill="none" xmlns="http://www.w3.org/2000/svg">
<path d="M5.7582 7.51318H6.78945C6.73574 8.00732 6.5943 8.44954 6.36514 8.83984C6.13597 9.23014 5.81191 9.53988 5.39297 9.76904C4.97402 9.99463 4.45124 10.1074 3.82461 10.1074C3.36627 10.1074 2.94912 10.0215 2.57314 9.84961C2.20075 9.67773 1.88027 9.43424 1.61172 9.11914C1.34316 8.80046 1.13548 8.41911 0.98867 7.9751C0.845441 7.52751 0.773827 7.02979 0.773827 6.48193V5.70312C0.773827 5.15527 0.845441 4.65934 0.98867 4.21533C1.13548 3.76774 1.34495 3.3846 1.61709 3.06592C1.8928 2.74723 2.22402 2.50195 2.61074 2.33008C2.99746 2.1582 3.43252 2.07227 3.91592 2.07227C4.50674 2.07227 5.00625 2.18327 5.41445 2.40527C5.82265 2.62728 6.13955 2.93522 6.36514 3.3291C6.5943 3.7194 6.73574 4.17236 6.78945 4.68799H5.7582C5.70807 4.32275 5.61497 4.00944 5.4789 3.74805C5.34284 3.48307 5.14948 3.27897 4.89883 3.13574C4.64818 2.99251 4.32054 2.9209 3.91592 2.9209C3.56859 2.9209 3.26243 2.98714 2.99746 3.11963C2.73607 3.25212 2.51585 3.4401 2.33681 3.68359C2.16136 3.92708 2.02887 4.21891 1.93935 4.55908C1.84984 4.89925 1.80508 5.27702 1.80508 5.69238V6.48193C1.80508 6.86507 1.84446 7.22493 1.92324 7.56152C2.0056 7.89811 2.12913 8.19352 2.29385 8.44775C2.45856 8.70199 2.66803 8.90251 2.92226 9.04932C3.1765 9.19255 3.47728 9.26416 3.82461 9.26416C4.26504 9.26416 4.61595 9.19434 4.87734 9.05469C5.13874 8.91504 5.33568 8.71452 5.46816 8.45312C5.60423 8.19173 5.70091 7.87842 5.7582 7.51318ZM7.48847 7.15869V7.03516C7.48847 6.61621 7.54935 6.2277 7.67109 5.86963C7.79284 5.50798 7.96829 5.19466 8.19746 4.92969C8.42663 4.66113 8.70413 4.45345 9.02998 4.30664C9.35583 4.15625 9.72106 4.08105 10.1257 4.08105C10.5339 4.08105 10.9009 4.15625 11.2268 4.30664C11.5562 4.45345 11.8355 4.66113 12.0646 4.92969C12.2974 5.19466 12.4746 5.50798 12.5964 5.86963C12.7181 6.2277 12.779 6.61621 12.779 7.03516V7.15869C12.779 7.57764 12.7181 7.96615 12.5964 8.32422C12.4746 8.68229 12.2974 8.99561 12.0646 9.26416C11.8355 9.52913 11.558 9.73682 11.2321 9.88721C10.9099 10.034 10.5446 10.1074 10.1364 10.1074C9.72822 10.1074 9.3612 10.034 9.03535 9.88721C8.7095 9.73682 8.43021 9.52913 8.19746 9.26416C7.96829 8.99561 7.79284 8.68229 7.67109 8.32422C7.54935 7.96615 7.48847 7.57764 7.48847 7.15869ZM8.48213 7.03516V7.15869C8.48213 7.44873 8.51614 7.72266 8.58418 7.98047C8.65221 8.2347 8.75426 8.46029 8.89033 8.65723C9.02998 8.85417 9.20364 9.00993 9.41133 9.12451C9.61901 9.23551 9.86071 9.29102 10.1364 9.29102C10.4086 9.29102 10.6467 9.23551 10.8508 9.12451C11.0585 9.00993 11.2303 8.85417 11.3664 8.65723C11.5025 8.46029 11.6045 8.2347 11.6726 7.98047C11.7442 7.72266 11.78 7.44873 11.78 7.15869V7.03516C11.78 6.7487 11.7442 6.47835 11.6726 6.22412C11.6045 5.96631 11.5007 5.73893 11.361 5.54199C11.225 5.34147 11.0531 5.18392 10.8454 5.06934C10.6413 4.95475 10.4014 4.89746 10.1257 4.89746C9.85355 4.89746 9.61364 4.95475 9.40596 5.06934C9.20185 5.18392 9.02998 5.34147 8.89033 5.54199C8.75426 5.73893 8.65221 5.96631 8.58418 6.22412C8.51614 6.47835 8.48213 6.7487 8.48213 7.03516ZM14.7187 5.30566V12.2344H13.7197V4.18848H14.6328L14.7187 5.30566ZM18.6343 7.0459V7.15869C18.6343 7.58122 18.5841 7.97331 18.4839 8.33496C18.3836 8.69303 18.2368 9.00456 18.0435 9.26953C17.8537 9.53451 17.6191 9.7404 17.3398 9.88721C17.0605 10.034 16.7401 10.1074 16.3784 10.1074C16.0096 10.1074 15.6838 10.0465 15.4009 9.9248C15.118 9.80306 14.8781 9.62581 14.6812 9.39307C14.4842 9.16032 14.3267 8.88102 14.2085 8.55518C14.0939 8.22933 14.0151 7.8623 13.9722 7.4541V6.85254C14.0151 6.42285 14.0957 6.03792 14.2139 5.69775C14.332 5.35758 14.4878 5.06755 14.6812 4.82764C14.8781 4.58415 15.1162 4.39974 15.3955 4.27441C15.6748 4.14551 15.9971 4.08105 16.3623 4.08105C16.7275 4.08105 17.0516 4.15267 17.3345 4.2959C17.6173 4.43555 17.8555 4.63607 18.0488 4.89746C18.2422 5.15885 18.3872 5.47217 18.4839 5.8374C18.5841 6.19906 18.6343 6.60189 18.6343 7.0459ZM17.6353 7.15869V7.0459C17.6353 6.75586 17.6048 6.48372 17.5439 6.22949C17.4831 5.97168 17.3882 5.74609 17.2593 5.55273C17.1339 5.35579 16.9728 5.20182 16.7759 5.09082C16.5789 4.97624 16.3444 4.91895 16.0723 4.91895C15.8216 4.91895 15.6032 4.96191 15.417 5.04785C15.2344 5.13379 15.0786 5.25016 14.9497 5.39697C14.8208 5.5402 14.7152 5.70492 14.6328 5.89111C14.554 6.07373 14.495 6.26351 14.4556 6.46045V7.85156C14.5272 8.10221 14.6274 8.33854 14.7563 8.56055C14.8853 8.77897 15.0571 8.95622 15.272 9.09229C15.4868 9.22477 15.7572 9.29102 16.083 9.29102C16.3516 9.29102 16.5825 9.23551 16.7759 9.12451C16.9728 9.00993 17.1339 8.85417 17.2593 8.65723C17.3882 8.46029 17.4831 8.2347 17.5439 7.98047C17.6048 7.72266 17.6353 7.44873 17.6353 7.15869ZM21.1702 9.39844L22.7869 4.18848H23.8504L21.5193 10.897C21.4656 11.0402 21.394 11.1942 21.3045 11.3589C21.2186 11.5272 21.1076 11.6865 20.9715 11.8369C20.8354 11.9873 20.6707 12.109 20.4773 12.2021C20.2876 12.2988 20.0602 12.3472 19.7952 12.3472C19.7164 12.3472 19.6162 12.3364 19.4944 12.3149C19.3727 12.2935 19.2868 12.2756 19.2366 12.2612L19.2312 11.4556C19.2599 11.4591 19.3047 11.4627 19.3655 11.4663C19.43 11.4735 19.4747 11.4771 19.4998 11.4771C19.7254 11.4771 19.917 11.4466 20.0745 11.3857C20.2321 11.3285 20.3645 11.23 20.472 11.0903C20.583 10.9543 20.6779 10.7663 20.7566 10.5264L21.1702 9.39844ZM19.9832 4.18848L21.4925 8.7002L21.7503 9.74756L21.0359 10.1128L18.8982 4.18848H19.9832ZM25.441 5.10156V10H24.4474V4.18848H25.4142L25.441 5.10156ZM27.2564 4.15625L27.2511 5.08008C27.1687 5.06217 27.0899 5.05143 27.0147 5.04785C26.9431 5.04069 26.8608 5.03711 26.7677 5.03711C26.5385 5.03711 26.3362 5.07292 26.1607 5.14453C25.9853 5.21615 25.8367 5.31641 25.7149 5.44531C25.5932 5.57422 25.4965 5.72819 25.4249 5.90723C25.3569 6.08268 25.3121 6.27604 25.2906 6.4873L25.0113 6.64844C25.0113 6.29753 25.0453 5.9681 25.1134 5.66016C25.185 5.35221 25.2942 5.08008 25.441 4.84375C25.5878 4.60384 25.774 4.41764 25.9996 4.28516C26.2288 4.14909 26.5009 4.08105 26.816 4.08105C26.8876 4.08105 26.97 4.09001 27.0631 4.10791C27.1562 4.12223 27.2206 4.13835 27.2564 4.15625ZM28.9545 4.18848V10H27.9555V4.18848H28.9545ZM27.8803 2.64697C27.8803 2.48584 27.9286 2.34977 28.0253 2.23877C28.1256 2.12777 28.2724 2.07227 28.4657 2.07227C28.6555 2.07227 28.8005 2.12777 28.9008 2.23877C29.0046 2.34977 29.0565 2.48584 29.0565 2.64697C29.0565 2.80094 29.0046 2.93343 28.9008 3.04443C28.8005 3.15186 28.6555 3.20557 28.4657 3.20557C28.2724 3.20557 28.1256 3.15186 28.0253 3.04443C27.9286 2.93343 27.8803 2.80094 27.8803 2.64697ZM34.0148 4.18848H34.9172V9.87646C34.9172 10.3885 34.8133 10.8254 34.6057 11.187C34.398 11.5487 34.1079 11.8226 33.7355 12.0088C33.3667 12.1986 32.9406 12.2935 32.4572 12.2935C32.2567 12.2935 32.0204 12.2612 31.7482 12.1968C31.4797 12.1359 31.2147 12.0303 30.9533 11.8799C30.6955 11.7331 30.4789 11.5343 30.3034 11.2837L30.8244 10.6929C31.0679 10.9865 31.3221 11.1906 31.5871 11.3052C31.8557 11.4198 32.1206 11.4771 32.382 11.4771C32.6971 11.4771 32.9693 11.418 33.1984 11.2998C33.4276 11.1816 33.6048 11.0062 33.7302 10.7734C33.8591 10.5443 33.9235 10.2614 33.9235 9.9248V5.4668L34.0148 4.18848ZM30.0134 7.15869V7.0459C30.0134 6.60189 30.0653 6.19906 30.1691 5.8374C30.2766 5.47217 30.4287 5.15885 30.6257 4.89746C30.8262 4.63607 31.0679 4.43555 31.3508 4.2959C31.6337 4.15267 31.9523 4.08105 32.3068 4.08105C32.6721 4.08105 32.9908 4.14551 33.2629 4.27441C33.5386 4.39974 33.7714 4.58415 33.9611 4.82764C34.1545 5.06755 34.3067 5.35758 34.4177 5.69775C34.5287 6.03792 34.6057 6.42285 34.6486 6.85254V7.34668C34.6092 7.77279 34.5323 8.15592 34.4177 8.49609C34.3067 8.83626 34.1545 9.1263 33.9611 9.36621C33.7714 9.60612 33.5386 9.79053 33.2629 9.91943C32.9872 10.0448 32.6649 10.1074 32.2961 10.1074C31.9488 10.1074 31.6337 10.034 31.3508 9.88721C31.0715 9.7404 30.8316 9.53451 30.6311 9.26953C30.4305 9.00456 30.2766 8.69303 30.1691 8.33496C30.0653 7.97331 30.0134 7.58122 30.0134 7.15869ZM31.007 7.0459V7.15869C31.007 7.44873 31.0357 7.72087 31.093 7.9751C31.1538 8.22933 31.2451 8.45312 31.3669 8.64648C31.4922 8.83984 31.6516 8.99202 31.8449 9.10303C32.0383 9.21045 32.2692 9.26416 32.5378 9.26416C32.8672 9.26416 33.1394 9.19434 33.3542 9.05469C33.569 8.91504 33.7391 8.73063 33.8645 8.50146C33.9934 8.2723 34.0936 8.02344 34.1652 7.75488V6.46045C34.1258 6.26351 34.065 6.07373 33.9826 5.89111C33.9038 5.70492 33.8 5.5402 33.6711 5.39697C33.5458 5.25016 33.39 5.13379 33.2038 5.04785C33.0176 4.96191 32.7992 4.91895 32.5485 4.91895C32.2764 4.91895 32.0419 4.97624 31.8449 5.09082C31.6516 5.20182 31.4922 5.35579 31.3669 5.55273C31.2451 5.74609 31.1538 5.97168 31.093 6.22949C31.0357 6.48372 31.007 6.75586 31.007 7.0459ZM37.1201 1.75V10H36.1265V1.75H37.1201ZM36.8838 6.87402L36.4702 6.85791C36.4738 6.46045 36.5329 6.09342 36.6475 5.75684C36.762 5.41667 36.9232 5.12126 37.1309 4.87061C37.3385 4.61995 37.5856 4.4266 37.8721 4.29053C38.1621 4.15088 38.4826 4.08105 38.8335 4.08105C39.12 4.08105 39.3778 4.12044 39.6069 4.19922C39.8361 4.27441 40.0312 4.39616 40.1924 4.56445C40.3571 4.73275 40.4824 4.95117 40.5684 5.21973C40.6543 5.4847 40.6973 5.80876 40.6973 6.19189V10H39.6982V6.18115C39.6982 5.87679 39.6535 5.6333 39.564 5.45068C39.4744 5.26449 39.3438 5.13021 39.1719 5.04785C39 4.96191 38.7887 4.91895 38.5381 4.91895C38.291 4.91895 38.0654 4.97087 37.8613 5.07471C37.6608 5.17855 37.4871 5.32178 37.3403 5.50439C37.1971 5.68701 37.0843 5.89648 37.002 6.13281C36.9232 6.36556 36.8838 6.61263 36.8838 6.87402ZM44.3182 4.18848V4.95117H41.1761V4.18848H44.3182ZM42.2395 2.77588H43.2332V8.56055C43.2332 8.75749 43.2636 8.90609 43.3245 9.00635C43.3854 9.10661 43.4642 9.17285 43.5608 9.20508C43.6575 9.2373 43.7614 9.25342 43.8724 9.25342C43.9547 9.25342 44.0407 9.24626 44.1302 9.23193C44.2233 9.21403 44.2931 9.19971 44.3396 9.18896L44.345 10C44.2662 10.0251 44.1624 10.0483 44.0335 10.0698C43.9082 10.0949 43.756 10.1074 43.577 10.1074C43.3335 10.1074 43.1097 10.0591 42.9056 9.9624C42.7015 9.86572 42.5385 9.70459 42.4168 9.479C42.2986 9.24984 42.2395 8.94189 42.2395 8.55518V2.77588ZM64.7714 9.18359V10H59.6527V9.28564L62.2147 6.43359C62.5298 6.08268 62.7733 5.78548 62.9452 5.54199C63.1207 5.29492 63.2424 5.07471 63.3104 4.88135C63.3821 4.68441 63.4179 4.48389 63.4179 4.27979C63.4179 4.02197 63.3642 3.78923 63.2567 3.58154C63.1529 3.37028 62.9989 3.20199 62.7948 3.07666C62.5907 2.95133 62.3437 2.88867 62.0536 2.88867C61.7063 2.88867 61.4162 2.95671 61.1835 3.09277C60.9543 3.22526 60.7825 3.41146 60.6679 3.65137C60.5533 3.89128 60.496 4.16699 60.496 4.47852H59.5023C59.5023 4.03809 59.599 3.63525 59.7924 3.27002C59.9857 2.90479 60.2722 2.61475 60.6518 2.3999C61.0313 2.18148 61.4986 2.07227 62.0536 2.07227C62.5478 2.07227 62.9703 2.15999 63.3212 2.33545C63.6721 2.50732 63.9407 2.75081 64.1269 3.06592C64.3166 3.37744 64.4115 3.74268 64.4115 4.16162C64.4115 4.39079 64.3721 4.62354 64.2934 4.85986C64.2182 5.09261 64.1125 5.32536 63.9765 5.55811C63.844 5.79085 63.6882 6.02002 63.5092 6.24561C63.3337 6.47119 63.1457 6.6932 62.9452 6.91162L60.8505 9.18359H64.7714ZM70.444 5.4668V6.65918C70.444 7.30013 70.3867 7.84082 70.2722 8.28125C70.1576 8.72168 69.9929 9.07617 69.778 9.34473C69.5632 9.61328 69.3036 9.80843 68.9992 9.93018C68.6984 10.0483 68.3583 10.1074 67.9787 10.1074C67.6779 10.1074 67.4004 10.0698 67.1462 9.99463C66.892 9.91943 66.6628 9.79948 66.4587 9.63477C66.2582 9.46647 66.0863 9.24805 65.9431 8.97949C65.7998 8.71094 65.6906 8.38509 65.6154 8.00195C65.5402 7.61882 65.5026 7.17122 65.5026 6.65918V5.4668C65.5026 4.82585 65.5599 4.28874 65.6745 3.85547C65.7927 3.4222 65.9592 3.07487 66.174 2.81348C66.3889 2.5485 66.6467 2.35872 66.9475 2.24414C67.2518 2.12956 67.592 2.07227 67.968 2.07227C68.2723 2.07227 68.5516 2.10986 68.8059 2.18506C69.0637 2.25667 69.2928 2.37305 69.4934 2.53418C69.6939 2.69173 69.864 2.90299 70.0036 3.16797C70.1468 3.42936 70.2561 3.74984 70.3312 4.12939C70.4064 4.50895 70.444 4.95475 70.444 5.4668ZM69.445 6.82031V5.30029C69.445 4.94938 69.4235 4.64144 69.3806 4.37646C69.3412 4.10791 69.2821 3.87874 69.2033 3.68896C69.1245 3.49919 69.0243 3.34521 68.9025 3.22705C68.7844 3.10889 68.6465 3.02295 68.489 2.96924C68.335 2.91195 68.1613 2.8833 67.968 2.8833C67.7316 2.8833 67.5222 2.92806 67.3395 3.01758C67.1569 3.10352 67.003 3.24137 66.8776 3.43115C66.7559 3.62093 66.6628 3.86979 66.5983 4.17773C66.5339 4.48568 66.5017 4.85986 66.5017 5.30029V6.82031C66.5017 7.17122 66.5213 7.48096 66.5607 7.74951C66.6037 8.01807 66.6664 8.25081 66.7487 8.44775C66.8311 8.64111 66.9313 8.80046 67.0495 8.92578C67.1677 9.05111 67.3037 9.14421 67.4577 9.20508C67.6153 9.26237 67.7889 9.29102 67.9787 9.29102C68.2222 9.29102 68.4352 9.24447 68.6179 9.15137C68.8005 9.05827 68.9527 8.91325 69.0744 8.71631C69.1997 8.51579 69.2928 8.25977 69.3537 7.94824C69.4146 7.63314 69.445 7.25716 69.445 6.82031ZM76.5464 9.18359V10H71.4277V9.28564L73.9897 6.43359C74.3049 6.08268 74.5483 5.78548 74.7202 5.54199C74.8957 5.29492 75.0174 5.07471 75.0854 4.88135C75.1571 4.68441 75.1929 4.48389 75.1929 4.27979C75.1929 4.02197 75.1392 3.78923 75.0317 3.58154C74.9279 3.37028 74.7739 3.20199 74.5698 3.07666C74.3657 2.95133 74.1187 2.88867 73.8286 2.88867C73.4813 2.88867 73.1912 2.95671 72.9585 3.09277C72.7293 3.22526 72.5575 3.41146 72.4429 3.65137C72.3283 3.89128 72.271 4.16699 72.271 4.47852H71.2773C71.2773 4.03809 71.374 3.63525 71.5674 3.27002C71.7607 2.90479 72.0472 2.61475 72.4268 2.3999C72.8063 2.18148 73.2736 2.07227 73.8286 2.07227C74.3228 2.07227 74.7453 2.15999 75.0962 2.33545C75.4471 2.50732 75.7157 2.75081 75.9019 3.06592C76.0916 3.37744 76.1865 3.74268 76.1865 4.16162C76.1865 4.39079 76.1471 4.62354 76.0684 4.85986C75.9932 5.09261 75.8875 5.32536 75.7515 5.55811C75.619 5.79085 75.4632 6.02002 75.2842 6.24561C75.1087 6.47119 74.9207 6.6932 74.7202 6.91162L72.6255 9.18359H76.5464ZM82.4339 9.18359V10H77.3152V9.28564L79.8772 6.43359C80.1923 6.08268 80.4358 5.78548 80.6077 5.54199C80.7832 5.29492 80.9049 5.07471 80.9729 4.88135C81.0446 4.68441 81.0804 4.48389 81.0804 4.27979C81.0804 4.02197 81.0267 3.78923 80.9192 3.58154C80.8154 3.37028 80.6614 3.20199 80.4573 3.07666C80.2532 2.95133 80.0061 2.88867 79.7161 2.88867C79.3688 2.88867 79.0787 2.95671 78.846 3.09277C78.6168 3.22526 78.445 3.41146 78.3304 3.65137C78.2158 3.89128 78.1585 4.16699 78.1585 4.47852H77.1648C77.1648 4.03809 77.2615 3.63525 77.4549 3.27002C77.6482 2.90479 77.9347 2.61475 78.3143 2.3999C78.6938 2.18148 79.1611 2.07227 79.7161 2.07227C80.2103 2.07227 80.6328 2.15999 80.9837 2.33545C81.3346 2.50732 81.6032 2.75081 81.7894 3.06592C81.9791 3.37744 82.074 3.74268 82.074 4.16162C82.074 4.39079 82.0346 4.62354 81.9559 4.85986C81.8807 5.09261 81.775 5.32536 81.639 5.55811C81.5065 5.79085 81.3507 6.02002 81.1717 6.24561C80.9962 6.47119 80.8082 6.6932 80.6077 6.91162L78.513 9.18359H82.4339ZM86.7216 2.17969V11.4502H85.9213V2.17969H86.7216ZM91.0254 2.17969H92.0298L94.5918 8.55518L97.1484 2.17969H98.1582L94.9785 10H94.1943L91.0254 2.17969ZM90.6978 2.17969H91.584L91.729 6.94922V10H90.6978V2.17969ZM97.5942 2.17969H98.4805V10H97.4492V6.94922L97.5942 2.17969ZM101.113 2.17969V10H100.076V2.17969H101.113ZM103.735 2.17969V10H102.698V2.17969H103.735ZM107.011 5.69775V6.54639H103.509V5.69775H107.011ZM107.543 2.17969V3.02832H103.509V2.17969H107.543Z" fill="#2C2C54"/>
<path d="M52 1.625C49.584 1.625 47.625 3.58398 47.625 6C47.625 8.41602 49.584 10.375 52 10.375C54.416 10.375 56.375 8.41602 56.375 6C56.375 3.58398 54.416 1.625 52 1.625ZM52 9.63281C49.9941 9.63281 48.3672 8.00586 48.3672 6C48.3672 3.99414 49.9941 2.36719 52 2.36719C54.0059 2.36719 55.6328 3.99414 55.6328 6C55.6328 8.00586 54.0059 9.63281 52 9.63281ZM52.0547 4.43066C52.5723 4.43066 52.9238 4.76074 52.9629 5.24512C52.9658 5.28613 53 5.31738 53.041 5.31738H53.5947C53.6201 5.31738 53.6406 5.29688 53.6406 5.27148C53.6406 4.4248 52.9727 3.83203 52.0518 3.83203C50.9785 3.83203 50.3594 4.55664 50.3594 5.75391V6.26465C50.3594 7.45312 50.9785 8.16797 52.0518 8.16797C52.9697 8.16797 53.6406 7.59375 53.6406 6.78711C53.6406 6.76172 53.6201 6.74121 53.5947 6.74121H53.04C52.999 6.74121 52.9658 6.77246 52.9619 6.8125C52.9209 7.2627 52.5703 7.57227 52.0537 7.57227C51.416 7.57227 51.0566 7.10449 51.0566 6.26758V5.75391C51.0576 4.9043 51.418 4.43066 52.0547 4.43066Z" fill="black"/>
</svg>
