<svg width="45" height="45" viewBox="0 0 45 45" fill="none" xmlns="http://www.w3.org/2000/svg">
<g clip-path="url(#clip0_40_2664)">
<path d="M31.0066 32.0001C31.5551 32.0001 32 31.5553 32 31.0066V14.9934C32 14.4447 31.5551 14 31.0066 14H14.9934C14.4447 14 14 14.4447 14 14.9934V31.0066C14 31.5553 14.4447 32.0001 14.9934 32.0001H31.0066Z" fill="#395185"/>
<path d="M26.4196 32.0001V25.0295H28.7594L29.1097 22.313H26.4196V20.5785C26.4196 19.792 26.6381 19.256 27.766 19.256L29.2045 19.2554V16.8257C28.9556 16.7926 28.1017 16.7186 27.1083 16.7186C25.0343 16.7186 23.6144 17.9846 23.6144 20.3096V22.313H21.2686V25.0295H23.6144V32.0001H26.4196Z" fill="white"/>
</g>
<rect x="0.5" y="0.5" width="44" height="44" rx="7.5" stroke="black"/>
<defs>
<clipPath id="clip0_40_2664">
<rect width="18" height="18" fill="white" transform="translate(14 14)"/>
</clipPath>
</defs>
</svg>
