<svg width="45" height="45" viewBox="0 0 45 45" fill="none" xmlns="http://www.w3.org/2000/svg">
<path d="M30.3541 21.5311H29.75V21.5H23V24.5H27.2386C26.6203 26.2464 24.9586 27.5 23 27.5C20.5149 27.5 18.5 25.4851 18.5 23C18.5 20.5149 20.5149 18.5 23 18.5C24.1471 18.5 25.1908 18.9327 25.9854 19.6396L28.1068 17.5182C26.7673 16.2699 24.9755 15.5 23 15.5C18.8581 15.5 15.5 18.8581 15.5 23C15.5 27.1419 18.8581 30.5 23 30.5C27.1419 30.5 30.5 27.1419 30.5 23C30.5 22.4971 30.4482 22.0062 30.3541 21.5311Z" fill="#FFC107"/>
<path d="M16.3647 19.5091L18.8289 21.3163C19.4956 19.6655 21.1104 18.5 23 18.5C24.1471 18.5 25.1907 18.9328 25.9854 19.6396L28.1067 17.5183C26.7672 16.2699 24.9755 15.5 23 15.5C20.1192 15.5 17.621 17.1264 16.3647 19.5091Z" fill="#FF3D00"/>
<path d="M23 30.5C24.9372 30.5 26.6975 29.7586 28.0284 28.553L25.7071 26.5887C24.9288 27.1806 23.9778 27.5008 23 27.5C21.0492 27.5 19.3929 26.2561 18.7689 24.5202L16.3231 26.4046C17.5644 28.8335 20.0851 30.5 23 30.5Z" fill="#4CAF50"/>
<path d="M30.3541 21.5311H29.75V21.5H23V24.5H27.2386C26.9428 25.3312 26.41 26.0574 25.706 26.5891L25.7071 26.5884L28.0284 28.5526C27.8641 28.7019 30.5 26.75 30.5 23C30.5 22.4971 30.4482 22.0063 30.3541 21.5311Z" fill="#1976D2"/>
<rect x="0.5" y="0.5" width="44" height="44" rx="7.5" stroke="black"/>
</svg>
