<svg width="375" height="500" viewBox="0 0 375 500" fill="none" xmlns="http://www.w3.org/2000/svg">
<path fill-rule="evenodd" clip-rule="evenodd" d="M274.894 199.778C274.894 206.801 272.514 213.268 268.514 218.417L212.722 274.208L212.463 274.227H191.319C173.111 273.921 169.87 253.393 169.87 253.393V231.704L225.833 175.741C230.981 171.736 237.449 169.356 244.477 169.356C261.278 169.356 274.894 182.977 274.894 199.778Z" fill="#2C2C54"/>
<path fill-rule="evenodd" clip-rule="evenodd" d="M212.722 274.208L165.333 321.597L161.523 325.407L158.991 327.939C153.736 332.611 146.852 335.486 139.292 335.592C123.093 335.342 109.968 322.398 109.444 306.259V196.634C111.051 181.389 123.944 169.514 139.616 169.514C155.324 169.514 168.245 181.454 169.801 196.755V231.773L169.87 231.704V253.394C169.87 253.394 173.111 273.921 191.319 274.227H212.463L212.722 274.208Z" fill="#63A4D9"/>
<path d="M244.012 336.214C260.982 336.214 274.739 322.457 274.739 305.487C274.739 288.517 260.982 274.76 244.012 274.76C227.043 274.76 213.286 288.517 213.286 305.487C213.286 322.457 227.043 336.214 244.012 336.214Z" fill="#63A4D9"/>
</svg>
