<svg width="230" height="181" viewBox="0 0 230 181" fill="none" xmlns="http://www.w3.org/2000/svg">
<g clip-path="url(#clip0_30_107)">
<path d="M209.36 165.142C204.951 169.871 199.899 173.954 194.353 177.271C194.226 177.349 194.096 177.423 193.967 177.499L184.988 169.538C185.082 169.45 185.187 169.351 185.299 169.243C191.989 162.879 225.202 118.384 227.415 107.549C227.262 108.452 229.412 143.851 209.36 165.142Z" fill="#F0F0F0"/>
<path d="M196.085 178.807C195.916 178.847 195.743 178.885 195.57 178.92L188.833 172.947C188.965 172.901 189.119 172.847 189.295 172.786C192.185 171.761 200.793 168.666 209.359 165.141C218.564 161.352 227.725 157.07 229.695 154.328C229.272 154.965 216.254 174.289 196.085 178.807Z" fill="#F0F0F0"/>
<path d="M209.236 47.3769H208.276V21.0513C208.276 19.0504 207.883 17.0691 207.119 15.2205C206.354 13.3719 205.234 11.6922 203.822 10.2774C202.409 8.86254 200.733 7.74022 198.887 6.97451C197.042 6.2088 195.064 5.8147 193.067 5.8147H137.391C135.394 5.81469 133.416 6.20879 131.571 6.9745C129.725 7.7402 128.049 8.86252 126.636 10.2774C125.224 11.6922 124.104 13.3719 123.339 15.2204C122.575 17.069 122.182 19.0503 122.182 21.0512V165.476C122.182 167.477 122.575 169.458 123.339 171.307C124.104 173.155 125.224 174.835 126.636 176.25C128.049 177.664 129.725 178.787 131.571 179.552C133.416 180.318 135.394 180.712 137.391 180.712H193.067C195.064 180.712 197.042 180.318 198.887 179.553C200.732 178.787 202.409 177.665 203.822 176.25C205.234 174.835 206.354 173.155 207.119 171.307C207.883 169.458 208.276 167.477 208.276 165.476V66.1159H209.236V47.3769Z" fill="#3F3D56"/>
<path d="M205.039 21.1559V165.37C205.039 166.865 204.745 168.344 204.174 169.725C203.603 171.105 202.766 172.359 201.711 173.416C200.656 174.472 199.404 175.31 198.026 175.882C196.647 176.453 195.17 176.747 193.679 176.746H137.735C136.244 176.747 134.767 176.452 133.389 175.881C132.011 175.309 130.759 174.471 129.705 173.415C128.65 172.358 127.814 171.104 127.243 169.724C126.672 168.344 126.379 166.864 126.379 165.37V21.1559C126.379 19.662 126.672 18.1826 127.243 16.8023C127.814 15.4221 128.65 14.1679 129.705 13.1115C130.759 12.0551 132.011 11.2172 133.389 10.6455C134.767 10.0739 136.244 9.77967 137.735 9.77979H144.524C144.191 10.6007 144.064 11.491 144.155 12.3725C144.246 13.2539 144.551 14.0996 145.045 14.835C145.538 15.5703 146.205 16.173 146.985 16.5898C147.766 17.0067 148.637 17.225 149.521 17.2256H181.417C182.302 17.2265 183.173 17.0091 183.955 16.5926C184.736 16.1761 185.403 15.5734 185.897 14.8376C186.391 14.1018 186.696 13.2555 186.787 12.3734C186.877 11.4914 186.749 10.6006 186.414 9.77979H193.679C195.17 9.77924 196.647 10.0731 198.026 10.6446C199.404 11.216 200.656 12.0539 201.711 13.1103C202.766 14.1668 203.603 15.421 204.174 16.8015C204.745 18.182 205.039 19.6617 205.039 21.1559Z" fill="white"/>
<path d="M187.637 96.0974H138.464C137.603 96.0964 136.777 95.7532 136.168 95.1431C135.559 94.533 135.216 93.7059 135.215 92.8431V91.2232C135.216 90.3604 135.559 89.5332 136.168 88.9231C136.777 88.313 137.603 87.9698 138.464 87.9688H187.637C188.498 87.9698 189.324 88.313 189.933 88.9231C190.542 89.5332 190.884 90.3604 190.885 91.2232V92.8431C190.884 93.7059 190.542 94.533 189.933 95.1431C189.324 95.7532 188.498 96.0964 187.637 96.0974Z" fill="#F0F0F0"/>
<path d="M187.637 110.061H138.464C137.603 110.06 136.777 109.717 136.168 109.107C135.559 108.497 135.216 107.669 135.215 106.807V105.187C135.216 104.324 135.559 103.497 136.168 102.887C136.777 102.276 137.603 101.933 138.464 101.932H187.637C188.498 101.933 189.324 102.276 189.933 102.887C190.542 103.497 190.884 104.324 190.885 105.187V106.807C190.884 107.669 190.542 108.497 189.933 109.107C189.324 109.717 188.498 110.06 187.637 110.061Z" fill="#F0F0F0"/>
<path d="M190.096 92.9745H140.924C140.019 92.9734 139.152 92.6131 138.513 91.9725C137.873 91.3319 137.514 90.4633 137.513 89.5574V87.9375C137.514 87.0316 137.873 86.163 138.513 85.5224C139.152 84.8818 140.019 84.5215 140.924 84.5205H190.096C191.001 84.5215 191.868 84.8818 192.507 85.5224C193.147 86.163 193.506 87.0316 193.507 87.9375V89.5574C193.506 90.4633 193.147 91.3319 192.507 91.9725C191.868 92.6131 191.001 92.9734 190.096 92.9745ZM140.924 85.1713C140.192 85.1722 139.49 85.4639 138.972 85.9824C138.454 86.501 138.163 87.2041 138.162 87.9375V89.5574C138.163 90.2908 138.454 90.9939 138.972 91.5125C139.49 92.0311 140.192 92.3228 140.924 92.3236H190.096C190.829 92.3228 191.53 92.0311 192.048 91.5125C192.566 90.9939 192.857 90.2908 192.858 89.5574V87.9375C192.857 87.2041 192.566 86.501 192.048 85.9824C191.53 85.4639 190.829 85.1722 190.096 85.1713H140.924Z" fill="#3F3D56"/>
<path d="M190.096 106.938H140.924C140.019 106.937 139.152 106.577 138.513 105.936C137.873 105.295 137.514 104.427 137.513 103.521V101.901C137.514 100.995 137.873 100.127 138.513 99.486C139.152 98.8454 140.019 98.485 140.924 98.484H190.096C191.001 98.485 191.868 98.8454 192.507 99.486C193.147 100.127 193.506 100.995 193.507 101.901V103.521C193.506 104.427 193.147 105.295 192.507 105.936C191.868 106.577 191.001 106.937 190.096 106.938ZM140.924 99.1348C140.192 99.1357 139.49 99.4274 138.972 99.946C138.454 100.465 138.163 101.168 138.162 101.901V103.521C138.163 104.254 138.454 104.957 138.972 105.476C139.49 105.995 140.192 106.286 140.924 106.287H190.096C190.829 106.286 191.53 105.995 192.048 105.476C192.566 104.957 192.857 104.254 192.858 103.521V101.901C192.857 101.168 192.566 100.465 192.048 99.946C191.53 99.4274 190.829 99.1357 190.096 99.1348H140.924Z" fill="#3F3D56"/>
<path d="M205.039 21.1559V52.5246C200.063 53.8359 194.854 53.9863 189.811 52.9643C184.768 51.9423 180.027 49.7751 175.952 46.6295C171.876 43.4838 168.575 39.4435 166.303 34.8194C164.031 30.1953 162.848 25.1107 162.845 19.9567C162.845 19.0368 162.882 18.1264 162.956 17.2256H181.417C182.302 17.2265 183.173 17.0091 183.955 16.5926C184.736 16.1761 185.403 15.5734 185.897 14.8376C186.391 14.1018 186.697 13.2555 186.787 12.3734C186.877 11.4914 186.749 10.6006 186.414 9.77979H193.679C195.17 9.77924 196.647 10.0731 198.026 10.6446C199.404 11.216 200.656 12.0539 201.711 13.1103C202.766 14.1668 203.603 15.421 204.174 16.8015C204.745 18.182 205.039 19.6617 205.039 21.1559Z" fill="#F0F0F0"/>
<path d="M154.646 174.787C154.646 175.449 154.621 176.102 154.568 176.746H137.735C136.244 176.746 134.767 176.452 133.389 175.881C132.011 175.309 130.759 174.471 129.705 173.415C128.65 172.358 127.814 171.104 127.243 169.724C126.672 168.344 126.379 166.864 126.379 165.37V149.945C129.907 149.485 133.493 149.784 136.897 150.822C140.301 151.859 143.445 153.612 146.12 155.963C148.795 158.313 150.939 161.208 152.409 164.454C153.879 167.7 154.642 171.223 154.646 174.787H154.646Z" fill="#57A7F1"/>
<path d="M18.8812 147.721C19.3542 147.93 19.8904 147.941 20.3722 147.754C20.854 147.567 21.242 147.196 21.4512 146.723L36.6154 112.294C36.9624 111.506 37.0685 110.633 36.9201 109.785C36.7717 108.936 36.3755 108.151 35.7817 107.528C35.1879 106.906 34.423 106.473 33.5839 106.286C32.7448 106.099 31.8691 106.165 31.0676 106.477H31.0676C30.1416 106.831 29.3667 107.496 28.8747 108.358C28.7965 108.494 28.7255 108.634 28.6621 108.778L13.498 143.207C13.3946 143.442 13.3384 143.695 13.3325 143.951C13.3267 144.208 13.3713 144.463 13.4638 144.702C13.5564 144.941 13.695 145.159 13.8718 145.345C14.0487 145.53 14.2602 145.679 14.4944 145.782L18.8812 147.721Z" fill="#57A7F1"/>
<path d="M35.9928 126.429L20.9935 123.089L24.706 113.251C25.3385 110.846 26.8103 108.748 28.8546 107.337C30.8988 105.927 33.3801 105.297 35.8483 105.562L35.9929 105.578L35.9928 126.429Z" fill="#2F2E41"/>
<path d="M66.289 148.214C65.8479 148.213 65.4164 148.084 65.0467 147.843C64.677 147.602 64.3851 147.258 64.2061 146.854L49.042 112.425C48.5597 111.33 48.5149 110.091 48.9167 108.963C49.3185 107.836 50.1364 106.905 51.2021 106.364C52.2679 105.822 53.5004 105.71 54.6461 106.05C55.7918 106.391 56.7635 107.159 57.3614 108.196V108.195C57.4454 108.342 57.5216 108.493 57.5896 108.647L72.7538 143.076C72.9972 143.629 73.0115 144.256 72.7935 144.819C72.5755 145.383 72.143 145.836 71.5913 146.08L67.0558 148.085L67.0535 148.08C66.8083 148.168 66.5497 148.213 66.289 148.214Z" fill="#57A7F1"/>
<path d="M45.3131 136.391C44.7963 136.391 44.3009 136.597 43.9354 136.963C43.57 137.329 43.3645 137.826 43.3639 138.343V178.377C43.3645 178.894 43.57 179.391 43.9354 179.757C44.3009 180.123 44.7963 180.329 45.3131 180.329H50.1078C50.6246 180.329 51.1201 180.123 51.4855 179.757C51.8509 179.391 52.0564 178.894 52.057 178.377V138.343C52.0564 137.826 51.8509 137.329 51.4855 136.963C51.1201 136.597 50.6246 136.391 50.1078 136.391H45.3131Z" fill="#57A7F1"/>
<path d="M35.8297 136.391C35.3129 136.391 34.8175 136.597 34.4521 136.963C34.0866 137.329 33.8811 137.826 33.8805 138.343V178.377C33.8811 178.894 34.0866 179.391 34.4521 179.757C34.8175 180.123 35.3129 180.329 35.8297 180.329H40.6245C41.1413 180.329 41.6367 180.123 42.0021 179.757C42.3675 179.391 42.5731 178.894 42.5737 178.377V138.343C42.5731 137.826 42.3675 137.329 42.0021 136.963C41.6367 136.597 41.1413 136.391 40.6245 136.391H35.8297Z" fill="#57A7F1"/>
<path d="M42.8255 94.4491C51.9756 94.4491 59.3933 87.0183 59.3933 77.8519C59.3933 68.6856 51.9756 61.2547 42.8255 61.2547C33.6754 61.2547 26.2577 68.6856 26.2577 77.8519C26.2577 87.0183 33.6754 94.4491 42.8255 94.4491Z" fill="#57A7F1"/>
<path d="M48.339 84.8192C49.4129 84.7893 50.7495 84.7519 51.7792 83.9984C52.0858 83.7648 52.3378 83.4669 52.5173 83.1255C52.6969 82.7841 52.7998 82.4076 52.8188 82.0221C52.8374 81.7482 52.7926 81.4737 52.6877 81.22C52.5829 80.9664 52.4209 80.7405 52.2144 80.5599C51.6766 80.1046 50.8913 79.9979 50.045 80.247L50.9218 73.8276L50.2781 73.7393L49.2473 81.2861L49.7848 81.039C50.408 80.7527 51.2635 80.6069 51.795 81.057C51.9256 81.1746 52.0273 81.3208 52.0922 81.4843C52.1572 81.6477 52.1836 81.8239 52.1695 81.9993C52.1538 82.2861 52.0765 82.5662 51.943 82.8205C51.8095 83.0747 51.6229 83.2972 51.3959 83.4728C50.5946 84.0591 49.5292 84.1348 48.3209 84.1686L48.339 84.8192Z" fill="#2F2E41"/>
<path d="M57.6044 74.3812H54.1052V75.0321H57.6044V74.3812Z" fill="#2F2E41"/>
<path d="M46.5592 74.3812H43.06V75.0321H46.5592V74.3812Z" fill="#2F2E41"/>
<path d="M59.2418 148.416L53.2787 104.807C53.2147 104.34 52.9839 103.911 52.6289 103.601C52.2738 103.291 51.8186 103.12 51.3475 103.12H46.8464C46.8652 103.012 46.8749 102.904 46.8756 102.794V101.167C46.8756 100.649 46.6702 100.153 46.3047 99.7865C45.9392 99.4204 45.4434 99.2146 44.9265 99.2146H41.0281C40.5112 99.2146 40.0154 99.4204 39.6499 99.7865C39.2844 100.153 39.079 100.649 39.079 101.167V102.794C39.0797 102.904 39.0894 103.012 39.1082 103.12H34.6071C34.136 103.12 33.6808 103.291 33.3257 103.601C32.9707 103.911 32.7399 104.34 32.6759 104.807L26.7128 148.416C26.675 148.692 26.6967 148.973 26.7765 149.24C26.8562 149.507 26.9921 149.754 27.1751 149.964C27.358 150.174 27.5838 150.343 27.8371 150.458C28.0905 150.574 28.3655 150.633 28.6438 150.633H57.3107C57.589 150.633 57.8641 150.574 58.1175 150.458C58.3708 150.343 58.5966 150.174 58.7795 149.964C58.9625 149.754 59.0984 149.507 59.1781 149.24C59.2579 148.973 59.2796 148.692 59.2418 148.416Z" fill="#2F2E41"/>
<path d="M49.9618 126.429V105.578L50.1063 105.562C52.5775 105.297 55.0616 105.929 57.1071 107.343C59.1527 108.757 60.6241 110.859 61.2539 113.268L64.961 123.089L49.9618 126.429Z" fill="#2F2E41"/>
<path d="M41.9912 94.9671L30.5317 90.5112C28.6578 89.7826 26.7734 89.0762 24.9095 88.3225C24.1111 88.0437 23.3756 87.6095 22.7454 87.0448C22.1968 86.4629 21.8229 85.7381 21.6665 84.9532C21.2691 83.2703 21.3409 81.4303 21.3693 79.7129C21.3913 77.8341 21.5456 75.9592 21.8312 74.1022C22.3316 70.6125 23.5068 67.2541 25.291 64.2153C28.5047 58.933 34.0418 54.9587 40.4109 55.2759C43.3595 55.4227 46.3251 56.4827 48.5159 58.5023C48.7444 58.7759 49.0008 59.0248 49.2809 59.2451C49.4757 59.3182 49.6875 59.3325 49.8903 59.286C50.1576 59.2688 50.4252 59.2557 50.693 59.2466C51.6221 59.2073 52.5529 59.2464 53.4756 59.3635C55.1569 59.5455 56.7504 60.2083 58.0659 61.273C59.1607 62.2164 60.0516 63.5483 60.1432 65.0284C60.1875 65.7079 60.0753 66.3885 59.8154 67.0176C59.5555 67.6468 59.1548 68.2078 58.6442 68.6572C57.2771 69.8115 55.3264 69.4058 53.6864 69.3188L47.6786 68.9999L44.6346 68.8384C44.0078 68.8051 44.0097 69.7815 44.6346 69.8147L52.7252 70.2441C54.0253 70.3131 55.3653 70.4822 56.6665 70.4041C57.6663 70.3587 58.621 69.974 59.3736 69.3131C60.061 68.6805 60.573 67.8804 60.8597 66.9906C61.1465 66.1008 61.1982 65.1517 61.0098 64.2359C60.5927 62.2385 59.1088 60.5863 57.3692 59.6033C55.0023 58.2658 52.1754 58.1377 49.5269 58.3354L49.8715 58.4784C46.8755 55.2572 42.2865 53.8971 37.9783 54.3731C33.4295 54.8756 29.3838 57.4178 26.477 60.894C23.236 64.7698 21.4699 69.6025 20.7833 74.572C20.426 77.2551 20.3084 79.9647 20.4318 82.6687C20.4267 83.8613 20.6304 85.0455 21.0336 86.1675C21.4935 87.2596 22.3252 88.1528 23.3807 88.6884C24.5908 89.2736 25.8348 89.7855 27.1061 90.2215L31.3281 91.8631L39.6212 95.0877L41.7321 95.9085C42.3172 96.136 42.5706 95.1923 41.9912 94.9671Z" fill="#2F2E41"/>
<path d="M23.9731 61.7896C22.9772 61.7896 22.0036 61.4937 21.1756 60.9395C20.3475 60.3852 19.7022 59.5974 19.321 58.6757C18.9399 57.754 18.8402 56.7397 19.0345 55.7612C19.2288 54.7827 19.7083 53.8839 20.4126 53.1785C21.1168 52.473 22.014 51.9926 22.9907 51.798C23.9675 51.6034 24.9799 51.7033 25.9 52.085C26.8201 52.4668 27.6065 53.1134 28.1598 53.9429C28.713 54.7724 29.0084 55.7477 29.0084 56.7453C29.0069 58.0827 28.4759 59.3648 27.5319 60.3105C26.5879 61.2561 25.308 61.7881 23.9731 61.7896ZM23.9731 52.6774C23.1699 52.6774 22.3848 52.916 21.717 53.3629C21.0492 53.8099 20.5288 54.4453 20.2214 55.1886C19.9141 55.9319 19.8337 56.7498 19.9903 57.5389C20.147 58.328 20.5338 59.0529 21.1017 59.6218C21.6696 60.1907 22.3931 60.5781 23.1809 60.7351C23.9686 60.8921 24.785 60.8115 25.527 60.5036C26.269 60.1957 26.9032 59.6743 27.3494 59.0053C27.7956 58.3364 28.0338 57.5499 28.0338 56.7453C28.0326 55.6668 27.6044 54.6328 26.8431 53.8702C26.0818 53.1076 25.0497 52.6786 23.9731 52.6774Z" fill="#2F2E41"/>
<path d="M108.145 93.0493L97.2466 84.6989L88.911 95.6169L99.8096 103.967L108.145 93.0493Z" fill="#F0F0F0"/>
<path d="M46.5507 18.5067C48.2727 18.5053 49.9711 18.9079 51.5099 19.6823C53.0487 20.4566 54.385 21.5811 55.412 22.9658L61.7759 14.6302L42.6811 0L28.0769 19.1288L36.3067 25.4343C37.1303 23.3882 38.5457 21.6353 40.371 20.4009C42.1964 19.1665 44.3484 18.5068 46.5507 18.5067Z" fill="#F0F0F0"/>
<path d="M229.675 180.899H0.324859C0.238701 180.899 0.156072 180.865 0.0951487 180.804C0.0342258 180.743 0 180.66 0 180.573C0 180.487 0.0342258 180.404 0.0951487 180.343C0.156072 180.282 0.238701 180.248 0.324859 180.248H229.675C229.761 180.248 229.844 180.282 229.905 180.343C229.966 180.404 230 180.487 230 180.573C230 180.66 229.966 180.743 229.905 180.804C229.844 180.865 229.761 180.899 229.675 180.899Z" fill="#3F3D56"/>
<path d="M173.698 126.899H150.353C149.492 126.898 148.666 126.555 148.057 125.945C147.448 125.335 147.105 124.508 147.104 123.645V122.025C147.105 121.162 147.448 120.335 148.057 119.725C148.666 119.115 149.492 118.772 150.353 118.771H173.698C174.559 118.772 175.385 119.115 175.994 119.725C176.603 120.335 176.946 121.162 176.946 122.025V123.645C176.946 124.508 176.603 125.335 175.994 125.945C175.385 126.555 174.559 126.898 173.698 126.899Z" fill="#57A7F1"/>
<path d="M176.158 123.776H152.813C151.908 123.775 151.041 123.415 150.402 122.774C149.762 122.134 149.403 121.265 149.402 120.359V118.739C149.403 117.834 149.762 116.965 150.402 116.324C151.041 115.684 151.908 115.323 152.813 115.322H176.158C177.062 115.323 177.929 115.684 178.569 116.324C179.208 116.965 179.568 117.834 179.569 118.739V120.359C179.568 121.265 179.208 122.134 178.569 122.774C177.929 123.415 177.062 123.775 176.158 123.776ZM152.813 115.973C152.081 115.974 151.379 116.266 150.861 116.784C150.343 117.303 150.052 118.006 150.051 118.739V120.359C150.052 121.093 150.343 121.796 150.861 122.314C151.379 122.833 152.081 123.125 152.813 123.126H176.158C176.89 123.125 177.592 122.833 178.109 122.314C178.627 121.796 178.918 121.093 178.919 120.359V118.739C178.918 118.006 178.627 117.303 178.109 116.784C177.592 116.266 176.89 115.974 176.158 115.973H152.813Z" fill="#3F3D56"/>
</g>
<defs>
<clipPath id="clip0_30_107">
<rect width="230" height="180.899" fill="white"/>
</clipPath>
</defs>
</svg>
